<svg width="44" height="20" viewBox="0 0 44 20" fill="none" xmlns="http://www.w3.org/2000/svg"><path d="M24.317 19.195c-.025.009-.052.016-.076.027-.427.203-.858.049-1.055-.38-.052-.112-.098-.228-.149-.342l-2.37-5.339c-.149-.336-.3-.671-.446-1.009-.034-.077-.066-.087-.127-.028a4.553 4.553 0 0 1-.262.242c-.521.438-1.026.899-1.573 1.302-.358.264-.767.467-1.172.656-.539.25-1.082.504-1.648.678-1.455.448-2.964.61-4.473.749-1.04.096-2.054.301-3.039.648-.249.087-.502.18-.727.314-.743.444-1.38 1.02-1.976 1.645-.059.061-.152.09-.23.134l-.209-.154c-.141-.327-.28-.655-.425-.98-.932-2.107-1.866-4.212-2.8-6.317-.41-.924-.82-1.848-1.228-2.773C.3 8.195.286 8.114.264 8.037l.134-.183.383-.21c.67-.361 1.329-.752 2.018-1.076.536-.252 1.108-.43 1.669-.627.834-.293 1.697-.472 2.56-.65 1.288-.267 2.585-.499 3.833-.917.495-.166.961-.416 1.437-.635.191-.089.374-.195.56-.296.9-.492 1.65-1.181 2.416-1.848.024-.022.046-.046.072-.065.085-.063.11-.132.064-.237-.12-.27-.094-.536.098-.76.204-.238.472-.315.779-.235.02.006.042.009.063.012l.314.231c.051.108.105.213.153.322l2.303 5.195 2.335 5.27c.994 2.24 1.986 4.482 2.984 6.72.113.254.203.501.147.78l-.27.367h.001ZM17.906 5.794c.48 1.089.965 2.176 1.448 3.264.87 1.958 1.739 3.916 2.607 5.875.542 1.221 1.082 2.443 1.626 3.664.031.071.08.143.137.194a.246.246 0 0 0 .301.016.273.273 0 0 0 .106-.286c-.012-.047-.033-.092-.053-.136l-2.966-6.693c-.76-1.711-1.517-3.423-2.276-5.134l-2.08-4.688c-.139-.312-.27-.626-.417-.934a.462.462 0 0 0-.174-.18c-.1-.061-.2-.018-.283.052-.079.066-.096.196-.044.316.135.307.272.613.408.92.412.93.823 1.86 1.237 2.79.026.059.061.113.093.17v-.002c.11.264.214.53.33.792ZM13.579 9.29c.403-.185.806-.37 1.205-.562.2-.096.392-.209.586-.315.13-.071.132-.075.07-.215-.275-.624-.553-1.247-.827-1.87-.039-.089-.075-.11-.17-.061-.602.306-1.208.605-1.814.904-.133.066-.14.068-.08.205.271.608.544 1.215.816 1.823.017.039.039.076.067.133.05-.013.1-.02.147-.041Zm2.214 5.105a16.809 16.809 0 0 0 1.844-.876c.11-.06.108-.125.064-.224-.217-.483-.43-.968-.643-1.453l-.17-.385c-.062-.143-.06-.138-.195-.069-.488.245-.977.488-1.466.728a4.617 4.617 0 0 1-.389.163c-.073.028-.085.064-.053.134.287.641.572 1.284.858 1.925.011.024.025.047.042.079.038-.007.076-.008.108-.021Zm-1.486-8.754c-.244-.554-.489-1.107-.735-1.66-.046-.103-.079-.257-.156-.287-.072-.027-.196.08-.295.13-.528.26-1.055.523-1.584.782-.178.086-.178.082-.102.253l.782 1.763c.095.216.08.197.26.109.582-.286 1.161-.576 1.74-.866.039-.019.074-.045.128-.08-.012-.047-.018-.098-.038-.144Zm.354 6.213a17 17 0 0 0 1.884-.911c.077-.043.077-.088.046-.157-.283-.633-.568-1.264-.845-1.899-.05-.112-.099-.09-.184-.048-.542.271-1.086.537-1.63.804-.095.047-.244.072-.274.146-.03.073.054.197.097.295.247.56.495 1.118.744 1.677.015.034.034.067.052.1l.01.04c.033-.016.066-.033.1-.047Zm2.997-5.478c-.2-.456-.402-.91-.603-1.365-.07-.159-.143-.316-.211-.475-.034-.078-.058-.113-.146-.038-.544.46-1.094.915-1.644 1.369-.064.053-.102.093-.06.187.287.636.568 1.274.848 1.913.047.109.094.07.154.02l1.545-1.311c.045-.038.088-.079.155-.139-.01-.045-.015-.107-.038-.16v-.001Zm-1.121-2.534c-.174-.396-.35-.792-.526-1.187l-.283-.638c-.066-.147-.065-.146-.183-.045-.35.299-.698.598-1.052.891-.191.16-.39.309-.59.456-.065.048-.076.09-.044.162.286.643.57 1.285.85 1.93.05.114.1.064.156.02.384-.316.77-.63 1.151-.95.182-.152.356-.315.555-.492-.01-.042-.013-.097-.034-.146Zm-5.708 6.166c.684-.157 1.368-.317 2.053-.474.126-.029.08-.098.05-.17l-.576-1.287c-.083-.188-.172-.373-.25-.563-.041-.103-.096-.114-.2-.088-.665.167-1.332.328-2 .486-.093.022-.132.04-.083.147.278.615.55 1.234.824 1.851.015.034.034.067.055.108.043-.003.086 0 .127-.009Zm7.966-1.073c-.228-.52-.46-1.039-.692-1.558l-.131-.296c-.052-.115-.06-.115-.155-.032-.3.265-.598.533-.903.792-.234.2-.474.394-.719.582-.076.06-.103.105-.06.2.282.627.56 1.256.834 1.885.047.107.09.09.162.03.46-.393.923-.784 1.383-1.177.099-.084.192-.174.309-.281-.007-.042-.007-.098-.028-.145Zm1.12 2.527c-.206-.47-.415-.938-.623-1.407-.057-.129-.112-.258-.17-.386-.07-.16-.073-.161-.203-.048-.315.279-.628.56-.948.834-.214.182-.436.355-.658.527-.071.055-.09.1-.05.188.281.626.558 1.253.833 1.882.041.094.08.116.162.045l1.64-1.42.057-.052c-.01-.046-.016-.108-.04-.163ZM8.714 5.548c.107.247.218.494.327.742.156.35.31.701.467 1.052.074.168.077.176.252.134.663-.157 1.323-.323 1.986-.479.12-.028.096-.083.062-.16-.247-.553-.492-1.107-.738-1.66-.035-.08-.076-.156-.104-.237-.03-.082-.075-.086-.15-.066-.67.175-1.34.345-2.01.517-.037.01-.073.022-.123.037.01.043.015.084.03.12Zm3.218 6.983c.682-.148 1.363-.296 2.044-.45.13-.029.134-.05.083-.167-.275-.624-.553-1.246-.824-1.871-.04-.09-.083-.105-.172-.084-.679.163-1.358.32-2.037.48-.121.028-.13.036-.08.15l.82 1.838c.015.034.036.066.058.106.036 0 .074.006.109-.002h-.001Zm3.262 1.944c-.084-.193-.17-.385-.256-.578-.19-.43-.386-.859-.57-1.292-.046-.11-.095-.122-.206-.097-.664.156-1.329.301-1.995.447-.154.034-.154.027-.09.174l.787 1.781c.068.153.07.16.227.128.668-.135 1.334-.275 2.001-.414.042-.01.082-.025.133-.04-.011-.04-.016-.076-.03-.108ZM6.93 8.003l1.593-.3.447-.08c.141-.026.145-.032.085-.168-.218-.494-.438-.988-.658-1.482-.043-.099-.089-.197-.133-.296-.047-.107-.126-.149-.235-.125-.249.052-.498.102-.747.155-.401.085-.803.171-1.204.26-.183.04-.183.043-.112.206l.745 1.691c.022.05.048.097.077.155.048-.006.096-.009.142-.017Zm4.368 4.512c-.277-.628-.557-1.255-.834-1.882-.03-.067-.07-.083-.14-.072-.715.117-1.43.232-2.145.344-.091.014-.102.044-.065.127.271.6.538 1.204.803 1.807.035.08.079.098.161.087.707-.1 1.414-.196 2.12-.293.037-.005.073-.015.121-.026-.008-.035-.01-.066-.021-.092Zm-1.12-2.519-.511-1.158c-.103-.232-.21-.463-.308-.698-.035-.081-.078-.1-.162-.086-.68.127-1.362.248-2.044.375-.169.032-.17.04-.1.2.255.575.512 1.147.76 1.723.046.106.097.132.208.113.688-.117 1.378-.226 2.067-.338.037-.006.073-.015.123-.025-.012-.04-.02-.074-.034-.106Zm-.015 5.386c.73-.082 1.46-.167 2.191-.246.1-.01.086-.042.056-.11-.245-.547-.488-1.096-.731-1.644l-.014-.03c-.092-.198-.244-.283-.455-.254l-1.849.25c-.032.005-.064.013-.096.014-.09.004-.092.043-.059.115.118.261.23.525.347.787l.442.992c.018.04.037.078.06.125.035 0 .072.004.108 0v.001Zm-8.339-5.178c.232-.15.458-.308.694-.451.351-.213.707-.418 1.066-.62.093-.053.118-.101.071-.203-.263-.582-.522-1.166-.777-1.751-.04-.094-.077-.109-.166-.06-.592.327-1.186.65-1.781.97-.095.052-.133.105-.081.219.279.616.55 1.235.825 1.853.01.025.023.049.043.091.036-.016.074-.027.106-.047Zm.157.645c.19.437.384.872.577 1.307l.217.49c.068.153.066.151.199.055.346-.25.69-.503 1.041-.746.21-.144.428-.275.648-.402.087-.05.112-.095.069-.19-.264-.588-.523-1.177-.784-1.766-.03-.066-.062-.113-.145-.061-.602.373-1.206.744-1.808 1.116-.014.008-.025.021-.056.048.012.044.02.1.042.15Zm1.115 2.517c.194.441.39.88.587 1.32.065.149.134.296.197.446.076.178.056.204.23.057.218-.185.433-.376.664-.545.313-.231.636-.45.961-.662.099-.064.115-.115.067-.22-.262-.576-.519-1.155-.775-1.734-.033-.074-.06-.119-.153-.064-.612.36-1.195.76-1.749 1.205-.013.01-.024.022-.057.052.007.039.007.097.029.145Zm1.127 2.547.734 1.643.085.192c.032.07.064.07.118.015a9.647 9.647 0 0 1 1.678-1.37c.074-.047.086-.09.05-.17-.265-.592-.525-1.186-.789-1.778-.047-.106-.065-.108-.187-.031-.472.296-.92.625-1.34.991-.118.103-.235.208-.353.31-.061.07-.025.133.004.198Zm.152-6.492c.174.396.35.791.526 1.187.086.192.174.384.256.578.03.073.06.1.144.066.65-.259 1.314-.469 1.993-.634.117-.028.095-.092.061-.168l-.519-1.172c-.088-.198-.181-.393-.264-.593-.035-.084-.075-.118-.17-.087-.656.219-1.314.433-1.971.65-.026.008-.049.02-.092.04.012.046.019.092.037.133Zm5.156 5.942-.438-.996c-.113-.257-.232-.512-.34-.772-.043-.104-.097-.138-.21-.11-.66.166-1.317.348-1.956.588-.113.043-.106.093-.066.182.257.577.516 1.155.766 1.736.047.109.098.112.198.08a92.64 92.64 0 0 1 1.534-.472c.145-.043.295-.068.442-.102a5.5 5.5 0 0 0 .105-.026c-.013-.04-.02-.076-.034-.108ZM3.305 7c.112.258.226.515.34.772.144.326.29.65.431.978.037.087.074.107.17.073.644-.22 1.291-.43 1.938-.643.138-.046.142-.045.085-.174l-.785-1.78c-.03-.07-.065-.1-.147-.072-.654.225-1.309.446-1.963.669-.03.01-.06.025-.107.046.013.044.02.09.038.13v.001Zm5.127 5.879-.66-1.483c-.034-.08-.075-.157-.104-.238-.04-.115-.104-.142-.221-.107-.363.11-.73.203-1.092.316-.283.089-.56.198-.842.293-.09.03-.121.064-.077.162.268.591.533 1.184.794 1.78.035.078.073.09.148.06.652-.25 1.321-.449 2.002-.608.03-.008.06-.022.103-.037-.018-.05-.032-.095-.05-.138Z" fill="#B4B8A5"/><path d="M18.798 18.829c-.055-.28.034-.528.147-.78.998-2.24 1.99-4.48 2.984-6.722a31319.7 31319.7 0 0 0 2.336-5.269L26.567.863c.048-.109.102-.214.154-.322l.313-.23c.022-.004.043-.007.064-.013.307-.08.575-.003.778.235.192.224.218.49.098.76-.046.105-.021.174.064.237.026.019.048.044.072.065.767.666 1.516 1.356 2.417 1.848.185.1.368.207.559.296.476.219.943.47 1.437.635 1.249.418 2.546.65 3.832.916.864.18 1.728.358 2.562.651.56.197 1.133.375 1.669.627.688.324 1.346.715 2.017 1.077l.383.209.135.183c-.023.077-.037.158-.07.23-.407.926-.817 1.85-1.227 2.774l-2.8 6.316c-.144.326-.283.654-.425.981l-.21.154c-.077-.044-.17-.073-.229-.134-.595-.625-1.233-1.2-1.976-1.645a3.943 3.943 0 0 0-.727-.314c-.984-.347-2-.553-3.039-.648-1.509-.138-3.018-.3-4.473-.749-.565-.174-1.109-.428-1.648-.678-.405-.189-.814-.392-1.172-.656-.547-.404-1.052-.864-1.573-1.302a4.406 4.406 0 0 1-.262-.242c-.06-.06-.093-.05-.126.028-.147.338-.298.673-.447 1.01l-2.37 5.338c-.05.114-.097.23-.149.343-.197.428-.627.582-1.055.38-.024-.012-.05-.018-.076-.028l-.27-.366h.001Zm7.01-13.827v.002c.032-.057.067-.11.094-.17l1.237-2.79c.136-.306.273-.612.407-.92.052-.12.035-.25-.043-.315-.083-.07-.184-.114-.284-.053a.462.462 0 0 0-.174.18c-.146.308-.278.623-.417.934l-2.08 4.688-2.275 5.135c-.99 2.23-1.979 4.461-2.967 6.692-.02.045-.04.09-.053.136a.273.273 0 0 0 .106.287c.083.06.215.061.301-.016a.577.577 0 0 0 .138-.194c.544-1.221 1.084-2.444 1.625-3.665l2.608-5.875c.483-1.087.967-2.175 1.448-3.264.115-.26.22-.527.33-.792Zm4.144 4.331c.028-.056.05-.094.067-.133l.815-1.823c.061-.137.055-.139-.079-.205-.606-.299-1.212-.598-1.814-.904-.095-.049-.13-.028-.17.06-.274.624-.551 1.247-.827 1.87-.062.141-.06.145.07.216.194.106.386.218.586.315.4.192.803.377 1.205.562.046.021.098.029.147.042ZM27.7 14.418c.017-.032.03-.055.041-.079.287-.641.572-1.283.86-1.925.03-.07.02-.106-.054-.134a4.508 4.508 0 0 1-.389-.163c-.49-.24-.978-.483-1.466-.728-.136-.068-.133-.073-.195.069l-.17.385c-.214.485-.426.97-.643 1.453-.044.099-.046.164.064.224.597.329 1.21.622 1.843.876.033.013.07.015.109.021v.001Zm1.339-8.632c.055.035.09.061.128.08.58.29 1.16.58 1.74.866.18.088.165.107.26-.109.26-.588.52-1.175.782-1.763.077-.171.076-.167-.101-.253-.53-.259-1.056-.52-1.584-.782-.1-.049-.224-.157-.295-.13-.078.03-.11.184-.157.287-.246.553-.49 1.106-.735 1.66-.02.045-.026.097-.038.144Zm-.216 6.115.01-.039c.017-.033.037-.066.052-.1l.744-1.677c.043-.098.127-.222.097-.295-.03-.074-.179-.099-.275-.146-.543-.267-1.088-.533-1.63-.804-.084-.042-.134-.064-.183.048-.278.635-.562 1.266-.845 1.899-.032.07-.032.114.046.157.61.341 1.236.648 1.884.91.034.014.067.032.1.047ZM25.69 6.538c.066.06.11.1.155.139.514.436 1.03.872 1.545 1.31.06.05.106.09.154-.02.28-.639.56-1.277.847-1.913.043-.094.004-.134-.06-.187-.549-.454-1.099-.908-1.643-1.369-.089-.075-.112-.04-.146.039-.069.159-.141.316-.211.474-.202.455-.404.91-.603 1.365-.023.054-.028.116-.038.161Zm1.125-2.548c.198.177.372.34.554.492.381.32.767.633 1.151.949.055.045.107.095.156-.019.28-.645.565-1.288.85-1.93.033-.073.021-.114-.044-.162-.2-.148-.399-.298-.59-.456-.354-.294-.702-.593-1.051-.891-.119-.101-.117-.103-.183.045l-.284.638c-.175.395-.352.79-.525 1.187-.021.048-.025.104-.034.146Zm5.868 6.028c.021-.04.04-.073.055-.107.274-.618.546-1.236.825-1.852.048-.106.009-.125-.084-.146-.667-.159-1.335-.32-2-.486-.104-.026-.158-.015-.2.087-.078.19-.167.376-.25.563l-.575 1.288c-.032.071-.077.14.05.17.684.156 1.369.316 2.053.474.04.009.083.006.127.008v.002Zm-8.12-.936c.116.107.21.198.308.282.46.393.923.783 1.383 1.176.072.06.116.078.162-.03.275-.63.553-1.258.834-1.884.043-.095.016-.141-.06-.2a18.776 18.776 0 0 1-.72-.582c-.303-.26-.601-.528-.901-.792-.096-.084-.104-.084-.156.031l-.131.297c-.231.519-.463 1.037-.692 1.558-.02.047-.02.104-.028.145Zm-1.133 2.544.056.052 1.64 1.42c.083.072.121.05.163-.044.274-.629.552-1.257.834-1.882.039-.089.02-.134-.051-.189a17.073 17.073 0 0 1-.658-.526c-.32-.274-.633-.556-.949-.834-.129-.114-.132-.113-.203.047l-.169.386c-.208.47-.417.938-.623 1.408-.024.054-.03.117-.04.163ZM34.7 5.428c-.051-.015-.087-.028-.123-.037-.67-.172-1.34-.342-2.01-.517-.076-.02-.12-.016-.15.066-.028.08-.069.158-.104.237-.246.554-.49 1.107-.738 1.66-.034.077-.058.132.062.16.662.157 1.323.322 1.986.48.175.04.177.033.252-.135l.467-1.052c.11-.248.22-.494.327-.742.016-.036.02-.078.03-.12h.001Zm-3.14 7.106c.021-.04.043-.072.058-.107.273-.612.547-1.225.819-1.838.05-.113.042-.121-.08-.15-.678-.158-1.357-.317-2.036-.48-.09-.02-.133-.005-.172.084-.271.626-.55 1.248-.824 1.871-.052.118-.046.139.083.168.68.153 1.362.301 2.044.45.035.008.073.001.108.002Zm-3.402 2.05c.05.016.09.032.133.04.666.14 1.333.28 2 .415.158.033.16.025.227-.128l.787-1.78c.066-.148.064-.142-.09-.175-.665-.146-1.33-.292-1.994-.447-.111-.025-.16-.012-.207.097-.184.434-.378.862-.57 1.292l-.256.579c-.014.032-.02.068-.03.108Zm8.438-6.564c.03-.058.056-.105.077-.154l.745-1.692c.072-.163.071-.166-.111-.206-.401-.088-.803-.174-1.205-.26-.249-.053-.498-.103-.746-.155-.11-.023-.189.019-.236.126-.044.099-.09.197-.133.296-.22.494-.44.988-.658 1.482-.06.136-.056.14.085.167l.447.081 1.594.3c.046.008.093.01.142.016Zm-4.532 4.588c.048.01.084.02.121.026.707.097 1.414.193 2.12.293.083.011.127-.007.162-.087.264-.604.531-1.206.802-1.807.038-.083.027-.112-.064-.127-.715-.113-1.43-.228-2.145-.344-.07-.01-.11.005-.14.072l-.834 1.882c-.012.027-.014.057-.022.092Zm1.108-2.505c.05.01.087.02.124.025.689.112 1.378.222 2.067.338.11.02.161-.006.207-.112.248-.576.506-1.148.76-1.723.07-.16.07-.17-.1-.2-.68-.127-1.363-.249-2.044-.375-.083-.016-.127.004-.161.086-.098.234-.206.465-.308.698l-.512 1.158c-.014.031-.021.066-.033.106Zm.158 5.28c.022-.047.042-.085.06-.125l.442-.992c.116-.262.228-.525.346-.787.033-.072.03-.111-.059-.115-.032-.001-.064-.01-.096-.014l-1.848-.25c-.212-.028-.364.056-.456.255l-.014.029-.73 1.645c-.031.067-.045.099.055.11.73.078 1.46.163 2.191.245.037.004.074 0 .11-.001h-.001Zm8.335-5.13.044-.091c.274-.618.545-1.238.825-1.854.052-.114.014-.166-.082-.218-.594-.322-1.188-.644-1.78-.97-.09-.05-.126-.035-.167.06-.255.585-.514 1.168-.777 1.75-.046.103-.021.15.072.203.357.202.714.407 1.066.62.235.143.462.302.693.452.032.02.07.031.106.047Zm-.22.448c-.032-.027-.043-.04-.056-.048-.603-.372-1.206-.743-1.808-1.116-.084-.052-.116-.005-.145.061-.261.59-.52 1.178-.785 1.765-.043.096-.017.141.07.191.22.127.438.258.647.402.352.242.696.496 1.042.746.132.097.13.098.198-.056l.218-.489c.192-.435.386-.87.576-1.307.022-.05.03-.105.042-.15Zm-1.13 2.521-.056-.052a14.475 14.475 0 0 0-1.75-1.205c-.092-.054-.119-.01-.152.065-.256.578-.513 1.157-.775 1.734-.049.105-.033.155.066.22.326.212.649.43.962.661.23.17.445.36.664.546.174.147.154.12.23-.058.063-.15.13-.297.197-.445.196-.44.393-.88.587-1.32.02-.049.02-.107.028-.146Zm-1.15 2.495c-.118-.104-.234-.208-.353-.31-.42-.367-.868-.696-1.34-.992-.122-.077-.14-.074-.187.03-.264.593-.524 1.187-.79 1.779-.035.08-.024.123.05.17a9.64 9.64 0 0 1 1.679 1.37c.054.055.087.056.117-.015l.086-.192.734-1.643c.029-.065.066-.129.004-.197Zm-.12-6.427c-.043-.02-.067-.032-.092-.041-.657-.216-1.315-.43-1.971-.65-.095-.031-.135.003-.17.088-.083.2-.176.395-.264.593l-.52 1.171c-.033.077-.055.14.062.168.679.166 1.343.376 1.993.635.083.033.113.006.144-.066.082-.195.17-.386.256-.579l.526-1.186c.018-.041.024-.087.037-.132Zm-5.227 6.182.104.026c.148.033.298.059.443.102.513.153 1.024.31 1.534.472.1.032.15.029.197-.08.251-.58.51-1.159.767-1.736.04-.088.047-.139-.066-.182-.64-.24-1.296-.422-1.957-.588-.113-.028-.167.007-.21.11-.108.26-.226.515-.34.772l-.437.995c-.014.033-.022.068-.034.108Zm6.297-8.601c-.047-.02-.076-.036-.106-.046-.654-.223-1.31-.444-1.963-.668-.081-.029-.116 0-.148.072-.26.593-.523 1.186-.784 1.78-.057.129-.053.127.085.173.646.213 1.293.424 1.937.644.097.033.133.014.17-.073.141-.328.288-.653.432-.979.114-.257.228-.514.34-.771.017-.041.025-.087.037-.132Zm-5.215 6.147c.044.016.073.03.104.037.68.16 1.35.357 2.002.609.075.028.113.017.148-.062.26-.595.525-1.187.794-1.779.044-.098.013-.131-.077-.162-.282-.095-.559-.205-.843-.293-.361-.113-.728-.207-1.09-.316-.118-.036-.183-.008-.223.107-.028.081-.069.158-.104.238l-.66 1.483c-.018.042-.032.087-.05.137Z" fill="#B4B8A5"/></svg>