<svg width="75" height="438" viewBox="0 0 75 438" fill="none" xmlns="http://www.w3.org/2000/svg"><mask id="a" style="mask-type:alpha" maskUnits="userSpaceOnUse" x="0" y="0" width="75" height="438"><path fill="#D9D9D9" d="M0 0h75v438H0z"/></mask><g mask="url(#a)"><path fill-rule="evenodd" clip-rule="evenodd" d="M73-3H0v402.014c0-8.29 4.66-15.876 12.054-19.624l48.892-24.78A22.001 22.001 0 0 0 73 334.986V-3Z" fill="#101012"/><path d="M74-135v467.986a22.999 22.999 0 0 1-12.602 20.515l-48.892 24.781A21.002 21.002 0 0 0 1 397.014V758.5c0 6.075 4.925 11 11 11h1588.5c6.08 0 11-4.925 11-11V643.173c0-8.201 4.37-15.782 11.46-19.896l53.08-30.784a21.012 21.012 0 0 0 10.46-18.166V-135c0-6.075-4.92-11-11-11H85c-6.075 0-11 4.925-11 11Z" stroke="#D2FF00" stroke-width="2"/></g></svg>