<svg width="34" height="22" viewBox="0 0 34 22" fill="none" xmlns="http://www.w3.org/2000/svg">
<mask id="mask0_1883_3837" style="mask-type:alpha" maskUnits="userSpaceOnUse" x="0" y="0" width="34" height="22">
<path d="M0 3.56315C0 2.09039 1.19391 0.896484 2.66667 0.896484H31.3333C32.8061 0.896484 34 2.09039 34 3.56315V19.2298C34 20.7026 32.8061 21.8965 31.3333 21.8965H2.66667C1.19391 21.8965 0 20.7026 0 19.2298V3.56315Z" fill="#1E50A0"/>
</mask>
<g mask="url(#mask0_1883_3837)">
<path d="M0 0.896484H34V21.8965H0V0.896484Z" fill="#1E50A0"/>
<path d="M4.40393 1.06934H0V3.76742L29.5858 21.895H33.9897V19.1969L4.40393 1.06934Z" fill="white"/>
<path d="M33.9897 3.76742V1.06934H29.5858L0 19.1969V21.895H4.40393L33.9897 3.76742Z" fill="white"/>
<path d="M0 8.01172H33.9897V14.9536H0V8.01172Z" fill="white"/>
<path d="M13.5977 1.06934H20.3956V21.895H13.5977V1.06934Z" fill="white"/>
<path d="M15.8633 1.06934H18.1293V21.895H15.8633V1.06934Z" fill="#D22F27"/>
<path d="M0 10.3252H33.9897V12.6392H0V10.3252ZM33.9897 19.1969L27.0637 14.9531H22.6598L33.9897 21.895V19.1969ZM33.9897 1.06934H29.5858L20.3938 6.70153V8.01123H22.6598L33.9897 1.06934ZM0 3.76742L6.92597 8.01123H11.3299L0 1.06934V3.76742ZM0 21.895H4.40393L13.5959 16.2628V14.9531H11.3299L0 21.895Z" fill="#D22F27"/>
</g>
</svg>
