<svg width="64" height="64" viewBox="0 0 64 64" fill="none" xmlns="http://www.w3.org/2000/svg">
<path d="M47.5816 62.0604C44.436 62.1903 40.714 61.4351 40.5931 60.3615C40.4721 59.2878 43.8371 44.636 43.8371 44.636C43.8371 44.636 39.355 14.8093 38.7109 11.1409C38.297 8.78093 43.4697 7.0875 47.7782 6.3599C51.8225 5.67679 57.8743 5.12223 57.2209 8.65962C56.367 13.289 51.1047 44.4644 51.1047 44.4644C51.1047 44.4644 53.416 56.76 53.8315 59.1316C54.1895 61.1714 50.1205 61.9565 47.5816 62.0604Z" stroke="#D1FF00" stroke-width="0.9" stroke-miterlimit="10" stroke-linejoin="round"/>
<path d="M51.1516 44.2805C49.9423 44.6918 48.3972 44.8434 47.2352 44.891C46.2292 44.932 44.9671 44.8385 43.8494 44.6401" stroke="#D1FF00" stroke-width="0.9" stroke-miterlimit="10" stroke-linejoin="round"/>
<path d="M53.3945 56.8192C51.6561 57.4618 48.9603 57.7839 47.0236 57.8633C45.3475 57.9324 42.7936 57.7736 41.0814 57.3162" stroke="#D1FF00" stroke-width="0.9" stroke-miterlimit="10" stroke-linejoin="round"/>
<path d="M38.9144 10.3979C38.7023 12.0991 43.7686 11.834 48.0202 10.9262C52.2706 10.0185 57.2554 9.1356 57.1256 7.33583" stroke="#D1FF00" stroke-width="0.9" stroke-miterlimit="10" stroke-linejoin="round"/>
<path d="M50.481 44.3052L56.151 8.7851" stroke="#D1FF00" stroke-width="0.9" stroke-miterlimit="10" stroke-linejoin="round"/>
<path d="M49.7557 44.6513L54.5923 9.43075" stroke="#D1FF00" stroke-width="0.9" stroke-miterlimit="10" stroke-linejoin="round"/>
<path d="M49.1186 44.5724L53.1975 10.174" stroke="#D1FF00" stroke-width="0.9" stroke-miterlimit="10" stroke-linejoin="round"/>
<path d="M48.2304 44.8197L50.8838 10.4288" stroke="#D1FF00" stroke-width="0.9" stroke-miterlimit="10" stroke-linejoin="round"/>
<path d="M47.2292 44.8616L48.111 11.0709" stroke="#D1FF00" stroke-width="0.9" stroke-miterlimit="10" stroke-linejoin="round"/>
<path d="M46.1719 44.8517L45.2207 11.4542" stroke="#D1FF00" stroke-width="0.9" stroke-miterlimit="10" stroke-linejoin="round"/>
<path d="M44.8468 44.7476L41.0566 11.6772" stroke="#D1FF00" stroke-width="0.9" stroke-miterlimit="10" stroke-linejoin="round"/>
</svg>
