<svg width="64" height="64" viewBox="0 0 64 64" fill="none" xmlns="http://www.w3.org/2000/svg">
<path d="M61.7517 59.579C61.7517 60.3002 58.0016 60.8842 53.3742 60.8842C48.7467 60.8842 44.9967 60.3002 44.9967 59.579V58.6323L45.2656 58.324V51.5139C45.2656 51.5139 44.3434 51.1539 44.9967 49.7373" stroke="#C9FF00" stroke-width="0.8" stroke-linecap="round" stroke-linejoin="round"/>
<path d="M53.3721 60.8842C57.9982 60.8842 61.7496 60.3002 61.7496 59.579V58.6323L61.4806 58.324V51.5139C61.4806 51.5139 62.4029 51.1539 61.7496 49.7373" stroke="#C9FF00" stroke-width="0.8" stroke-linecap="round" stroke-linejoin="round"/>
<path d="M61.5013 58.2212C61.5013 58.9424 57.8626 59.5264 53.3737 59.5264C48.8848 59.5264 45.2461 58.9424 45.2461 58.2212" stroke="#C9FF00" stroke-width="0.8" stroke-linecap="round" stroke-linejoin="round"/>
<path d="M53.3721 59.5264C57.861 59.5264 61.4997 58.9424 61.4997 58.2212" stroke="#C9FF00" stroke-width="0.8" stroke-linecap="round" stroke-linejoin="round"/>
<path d="M61.4842 51.5167C59.8639 52.0464 56.8975 52.3615 53.3743 52.3615C49.8511 52.3615 46.9282 52.0206 45.2793 51.5112" stroke="#C9FF00" stroke-width="0.8" stroke-linecap="round" stroke-linejoin="round"/>
<path d="M56.5148 48.5273C59.5857 48.7215 61.7521 49.1901 61.7521 49.7375C61.7521 50.4587 58.002 51.0427 53.3746 51.0427C48.7471 51.0427 44.9971 50.4587 44.9971 49.7375C44.9971 49.1833 47.215 48.7093 50.3444 48.5205" stroke="#C9FF00" stroke-width="0.8" stroke-linecap="round" stroke-linejoin="round"/>
<path d="M53.5449 47.4843L53.2407 47.051C53.1089 46.8636 52.9201 46.7223 52.7028 46.6476C52.6811 46.6395 49.3426 45.3573 45.2136 38.9153C43.5878 36.3808 43.1301 33.2162 43.126 33.185C43.1111 33.0763 43.0798 32.9717 43.0336 32.8726C43.0119 32.825 42.8177 32.4162 42.5977 32.0766C43.6435 31.5537 45.6537 30.061 46.9657 28.9364C47.3528 28.605 47.7127 28.2831 48.0305 27.9993C48.7667 27.3419 49.401 26.7742 49.8152 26.5799C50.7877 26.1236 51.2224 25.7894 52.0414 24.5874C52.6743 23.6598 53.6835 22.8829 54.8529 21.9837C54.9996 21.871 55.1367 21.7664 55.2644 21.6686C56.2627 20.9094 56.9228 20.4082 57.4838 19.2863C57.8831 18.4877 57.8817 17.4826 57.4783 16.597C56.9907 15.5267 55.9965 14.7512 54.679 14.4103C54.243 14.2975 53.7473 14.1699 53.9823 12.6011C54.0244 12.3227 54.0651 12.013 54.1086 11.6816C54.2919 10.2935 54.5215 8.56585 55.0892 7.00933C55.153 6.83548 55.2101 6.72275 55.2536 6.65212C55.3989 6.75127 55.6298 6.96451 55.8512 7.2932C56.3863 8.08504 57.0002 8.37027 57.4077 8.55906C57.6019 8.6487 57.7146 8.70303 57.7907 8.77638C58.1873 9.15532 58.5785 9.2341 58.8365 9.2341C59.4695 9.2341 59.9937 8.77909 60.1119 8.12715C60.2423 7.40865 59.8634 6.70917 59.2128 6.46604C59.0253 6.39542 58.8501 6.36282 58.679 6.33022C58.3449 6.26639 58.0814 6.21613 57.7405 5.89695C57.8029 5.7815 57.8736 5.64568 57.9496 5.48541C58.0202 5.33872 58.3421 5.00867 59.1082 4.62158C59.3812 5.22056 59.7846 6.11698 60.1812 7.02427L60.2206 7.11663C60.9228 8.72477 61.3859 9.78554 61.4946 11.6585C61.5014 11.7862 61.5095 11.9098 61.5177 12.032C61.629 13.8167 61.6902 14.8001 59.6216 17.8832C57.3371 21.2869 52.9174 24.5181 52.8726 24.5494C52.4529 24.855 52.3062 25.4146 52.5249 25.8859L52.6145 26.0787L52.1446 26.4319L51.5959 26.4468C51.3908 26.4523 51.1925 26.5161 51.0227 26.6288L44.1311 31.2237C43.8418 31.4165 43.6625 31.7357 43.6476 32.0821C43.5729 33.8681 44.0347 35.6651 45.018 37.4212C45.1674 37.6888 45.4241 37.8803 45.7229 37.9496L46.7986 38.1968L49.4186 41.845L49.2543 42.1343C49.0478 42.4996 49.0682 42.9506 49.31 43.2942C50.7728 45.3831 52.4991 46.3977 54.5853 46.3977C54.6763 46.3977 54.7687 46.3964 54.861 46.3923L53.5925 47.4843H53.5449Z" stroke="#C9FF00" stroke-width="0.6" stroke-linecap="round" stroke-linejoin="round"/>
<path d="M58.2825 15.6326C59.9751 15.6326 61.3472 14.2605 61.3472 12.5679C61.3472 10.8753 59.9751 9.50317 58.2825 9.50317C56.5899 9.50317 55.2178 10.8753 55.2178 12.5679C55.2178 14.2605 56.5899 15.6326 58.2825 15.6326Z" stroke="#C9FF00" stroke-width="0.8" stroke-linecap="round" stroke-linejoin="round"/>
<path d="M52.9811 48.9785C52.848 48.9785 52.7244 48.9133 52.647 48.8046L52.0887 48.0101C51.3838 47.7167 48.0141 46.0529 43.9557 39.7222C42.2688 37.0913 41.7337 33.9593 41.6563 33.4567C41.6006 33.3426 41.4593 33.0642 41.3248 32.8605C41.1293 32.5685 40.9676 32.0904 41.0953 31.6259C41.1673 31.3678 41.3602 31.0106 41.8763 30.7661C42.6573 30.3967 44.5819 29.0126 45.9931 27.8025C46.3679 27.4806 46.7061 27.179 47.0348 26.8857C47.8918 26.1196 48.5696 25.5152 49.1808 25.2286C49.8844 24.8986 50.1166 24.7587 50.8066 23.7482C51.574 22.6222 52.6714 21.7788 53.9414 20.8008C54.0908 20.6867 54.2293 20.5808 54.3597 20.4817C55.3077 19.7604 55.741 19.4318 56.1457 18.6209C56.3427 18.227 56.3318 17.6905 56.1172 17.2192C55.8211 16.5686 55.1773 16.0851 54.304 15.861C52.0684 15.2837 52.3957 13.1011 52.5044 12.3839C52.5451 12.1137 52.5845 11.8121 52.628 11.4902C52.8113 10.1076 53.0612 8.21285 53.686 6.50149C54.1071 5.347 54.7291 5.10524 55.1773 5.10524C55.5712 5.10524 55.9366 5.29268 56.2435 5.53308C56.2721 5.47604 56.3033 5.41627 56.3386 5.35244C56.412 5.22069 56.503 5.05635 56.6035 4.84582C56.9756 4.06484 58.0282 3.46315 58.8459 3.09643C58.9899 3.0326 59.142 3 59.2982 3C59.7301 3 60.1267 3.25399 60.3073 3.64923C60.6211 4.33513 61.091 5.37417 61.5528 6.43086L61.5922 6.52187C62.3311 8.21421 62.8649 9.43661 62.9885 11.5758C62.9953 11.7008 63.0034 11.8216 63.0102 11.9412C63.1297 13.8413 63.2153 15.2158 60.8642 18.7187C58.744 21.8779 55.0551 24.7804 54.0215 25.5614L54.179 25.901C54.3543 26.2785 54.2388 26.7322 53.9074 26.9821L52.7665 27.8378C52.6986 27.888 52.6171 27.9166 52.5329 27.9193L51.756 27.9396L45.1374 32.3525C45.1156 33.7555 45.4769 35.1287 46.2389 36.5372L47.536 36.8346C47.6324 36.8564 47.718 36.9134 47.7764 36.9935L51.0416 41.5395C51.1339 41.6685 51.1434 41.8397 51.0646 41.9782L50.6857 42.6465C51.8239 44.1867 53.0694 44.9052 54.5879 44.9052C54.816 44.9052 55.0551 44.8889 55.2982 44.8563C55.3159 44.8536 55.3349 44.8522 55.3525 44.8522C55.4666 44.8522 55.578 44.9011 55.6554 44.9867L56.4378 45.8559C56.5926 46.0284 56.67 46.2512 56.6551 46.4821C56.6401 46.713 56.5356 46.9248 56.3603 47.0756L54.2646 48.8807C54.1913 48.9445 54.0962 48.9798 53.9984 48.9798H52.9825L52.9811 48.9785Z" stroke="#C9FF00" stroke-width="0.8" stroke-linecap="round" stroke-linejoin="round"/>
<path d="M55.0859 48.2324H56.512V50.3119H50.3701V48.2324H52.22" stroke="#C9FF00" stroke-width="0.8" stroke-linecap="round" stroke-linejoin="round"/>
<path d="M59.0993 53.7227C55.2338 54.1695 51.3575 54.1831 47.4716 53.7485C47.4336 54.3284 47.1687 54.4208 46.8672 54.433V56.3793C47.3494 56.4364 47.5707 56.7393 47.5517 57.2744C51.3901 57.815 55.2311 57.8421 59.0735 57.3274C59.0735 56.636 59.3519 56.3875 59.7839 56.3807L59.7581 54.4072C59.3845 54.4439 59.1224 54.2863 59.1007 53.7227H59.0993Z" stroke="#C9FF00" stroke-width="0.8" stroke-linecap="round" stroke-linejoin="round"/>
<path d="M47.7878 55.8792C47.9618 55.8792 48.1029 55.7382 48.1029 55.5641C48.1029 55.3901 47.9618 55.249 47.7878 55.249C47.6137 55.249 47.4727 55.3901 47.4727 55.5641C47.4727 55.7382 47.6137 55.8792 47.7878 55.8792Z" fill="#C9FF00"/>
<path d="M58.7516 55.8792C58.9257 55.8792 59.0667 55.7382 59.0667 55.5641C59.0667 55.3901 58.9257 55.249 58.7516 55.249C58.5776 55.249 58.4365 55.3901 58.4365 55.5641C58.4365 55.7382 58.5776 55.8792 58.7516 55.8792Z" fill="#C9FF00"/>
</svg>
