<svg width="64" height="64" viewBox="0 0 64 64" fill="none" xmlns="http://www.w3.org/2000/svg">
<path d="M44.52 60.9051H53.8963C53.8963 60.9051 62.8312 41.0494 62.9419 30.5689C63.0525 20.0883 53.1241 7.51472 53.1241 7.51472L51.2488 17.6633C53.0523 18.9818 59.9706 21.3891 58.4191 30.9008C57.2113 38.3089 53.8021 44.3797 47.7184 44.8C40.8942 45.2708 41.0402 35.1434 44.0361 29.1504C46.6919 23.8389 50.3659 18.2154 50.3659 18.2154C50.0504 13.2524 48.6672 8.55183 46.2846 4.09497C46.2846 4.09497 45.5159 16.0953 41.0272 25.4752C37.6299 32.5736 35.033 43.2555 39.0048 49.9843C42.9755 56.7132 44.52 60.9051 44.52 60.9051Z" stroke="#D1FF00" stroke-width="0.9" stroke-miterlimit="10" stroke-linejoin="round"/>
<path d="M51.2493 17.6633C51.2493 17.6633 59.7864 18.1001 59.9476 26.1968C60.1089 34.2935 55.5379 52.6519 49.4459 53.2934C43.3539 53.935 38.5451 47.4381 38.7829 39.8252C39.1031 29.5636 50.3665 18.2143 50.3665 18.2143" stroke="#D1FF00" stroke-width="0.9" stroke-miterlimit="10" stroke-linejoin="round"/>
</svg>
