<svg width="64" height="64" viewBox="0 0 64 64" fill="none" xmlns="http://www.w3.org/2000/svg">
<path d="M40.2191 61.7082C41.8427 62.5618 45.4602 62.9999 49.6645 62.9999C53.8688 62.9999 57.7571 62.5167 59.2838 61.6113V59.2483C55.2906 60.1006 44.3544 60.4497 40.2178 59.1514V61.7082H40.2191Z" stroke="#D1FF00" stroke-width="0.9" stroke-miterlimit="10" stroke-linejoin="round"/>
<path d="M40.2183 59.1515C40.5143 58.6616 41.3135 58.513 41.3135 58.513C41.3135 58.513 42.3503 56.5588 44.3044 55.7889C46.2585 55.0189 46.1404 52.8564 46.1404 52.8564C46.1404 52.8564 45.8204 52.7555 45.7262 52.4422C45.0558 52.2776 43.9646 51.4107 45.8443 50.4575C45.1832 47.6577 41.1422 45.0916 39.3461 40.0244C37.6362 35.1989 34.182 24.4366 43.5159 19.5606C44.3814 18.5025 44.7863 16.1647 43.3234 14.8133C43.3234 14.8133 40.2767 14.3646 43.484 13.1778C43.5796 12.3441 44.3495 10.2267 47.59 9.32928C47.4613 8.49559 49.3225 8.36682 48.1675 6.50694C46.2001 3.3368 49.2667 1.15036 49.2667 1.15036C49.5455 0.953883 49.8269 0.945918 50.111 1.15036C50.111 1.15036 53.2586 3.33813 51.2925 6.50694C50.1376 8.36682 51.9988 8.49559 51.87 9.32928C55.1092 10.228 55.8791 12.3441 55.9761 13.1778C59.1834 14.3646 56.1367 14.8133 56.1367 14.8133C54.6737 16.1647 55.0786 18.5025 55.9442 19.5606C65.2781 24.4353 61.8238 35.1989 60.114 40.0244C58.3178 45.0916 54.2768 47.6577 53.6157 50.4575C55.4955 51.4107 54.4043 52.2762 53.7339 52.4422C53.6383 52.7555 53.3197 52.8564 53.3197 52.8564C53.3197 52.8564 53.2015 55.0189 55.1556 55.7889C57.1098 56.5588 58.1466 58.513 58.1466 58.513C58.1466 58.513 58.9457 58.6616 59.2418 59.1515" stroke="#D1FF00" stroke-width="0.9" stroke-miterlimit="10" stroke-linejoin="round"/>
<path d="M58.0867 58.5513C54.5754 59.4035 44.9587 59.7527 41.3213 58.4543" stroke="#D1FF00" stroke-width="0.9" stroke-miterlimit="10" stroke-linejoin="round"/>
<path d="M56.8405 56.9121C53.8974 57.7643 45.7251 58.1533 42.6758 56.855" stroke="#D1FF00" stroke-width="0.9" stroke-miterlimit="10" stroke-linejoin="round"/>
<path d="M53.318 52.8538C51.8033 53.0967 47.6561 53.195 46.0869 52.8259" stroke="#D1FF00" stroke-width="0.9" stroke-miterlimit="10" stroke-linejoin="round"/>
<path d="M53.7922 52.4196C52.0611 52.5709 47.4054 52.6333 45.6133 52.4023" stroke="#D1FF00" stroke-width="0.9" stroke-miterlimit="10" stroke-linejoin="round"/>
<path d="M45.8467 50.4575H53.6499" stroke="#D1FF00" stroke-width="0.9" stroke-miterlimit="10" stroke-linejoin="round"/>
<path d="M43.3994 14.8108H56.4265" stroke="#D1FF00" stroke-width="0.9" stroke-miterlimit="10" stroke-linejoin="round"/>
<path d="M43.5859 19.5247H55.9214" stroke="#D1FF00" stroke-width="0.9" stroke-miterlimit="10" stroke-linejoin="round"/>
<path d="M47.6357 9.35034H51.9555" stroke="#D1FF00" stroke-width="0.9" stroke-miterlimit="10" stroke-linejoin="round"/>
<path d="M40.4848 21.6634C39.7148 20.746 39.5688 19.6813 39.5688 19.6813C40.0785 19.6243 41.4751 18.5861 40.3042 17.3568C39.2847 16.2855 36.9203 16.8205 37.1155 20.4181C37.3425 24.5892 37 26.2725 37 27.008C37 27.7434 37.3783 27.8483 37.3783 27.8483" stroke="#D1FF00" stroke-width="0.9" stroke-miterlimit="10" stroke-linejoin="round"/>
<path d="M58.9771 21.6634C59.7471 20.746 59.8931 19.6813 59.8931 19.6813C59.3833 19.6243 57.9868 18.5861 59.1577 17.3568C60.1772 16.2855 62.5415 16.8205 62.3464 20.4181C62.1194 24.5892 62.4619 26.2725 62.4619 27.008C62.4619 27.7434 62.0835 27.8483 62.0835 27.8483" stroke="#D1FF00" stroke-width="0.9" stroke-miterlimit="10" stroke-linejoin="round"/>
<path d="M45.3643 40.7572C43.0902 33.4518 43.2376 28.4139 44.1244 24.0688H55.6261C56.5129 28.4139 56.6603 33.4518 54.3862 40.7572H45.3643Z" stroke="#D1FF00" stroke-width="0.9" stroke-miterlimit="10" stroke-linejoin="round"/>
</svg>
