<svg width="64" height="64" viewBox="0 0 64 64" fill="none" xmlns="http://www.w3.org/2000/svg">
<path d="M51.9469 43.6081C52.0149 43.5792 53.885 44.6451 56.7406 43.8133C57.9487 44.5935 59.0952 46.2749 59.7622 48.7416C60.6734 52.1118 61.7381 56.2208 61.7381 60.2682C61.7381 61.2096 56.1088 61.9999 53.7705 61.9999C51.4322 61.9999 45.7387 61.6802 45.7387 60.1763C45.7387 57.0238 47.2288 52.0816 47.9764 48.9001C48.7239 45.7186 51.9457 43.6081 51.9457 43.6081C51.9457 43.6081 53.8473 36.5794 52.6894 30.0465C51.5316 23.5136 50.0428 20.7852 47.7272 18.3034C45.414 15.8217 45 14.83 45 11.6044C45 8.37888 45.9464 6.38038 46.9847 5.56738C46.0219 8.12592 58.0507 7.66656 59.4589 23.1575C59.9145 28.1676 57.2578 29.6098 55.1725 35.0075C53.9379 38.2041 56.168 41.4762 56.5807 42.1382C56.9935 42.8002 56.723 43.8435 56.723 43.8435" stroke="#D1FF00" stroke-width="0.9" stroke-miterlimit="10" stroke-linecap="round" stroke-linejoin="round"/>
<path d="M47.7293 18.3022C46.0983 24.0674 47.3127 26.042 53.0062 32.3421" stroke="#D1FF00" stroke-width="0.9" stroke-miterlimit="10" stroke-linecap="round" stroke-linejoin="round"/>
<path d="M47.9953 18.6785C47.0086 23.082 48.1476 25.2831 52.8544 30.9766" stroke="#D1FF00" stroke-width="0.9" stroke-miterlimit="10" stroke-linecap="round" stroke-linejoin="round"/>
<path d="M54.5357 33.934C56.3392 28.3123 56.8237 19.7369 45.6973 12.5332" stroke="#D1FF00" stroke-width="0.7" stroke-miterlimit="10" stroke-linecap="round" stroke-linejoin="round"/>
<path d="M53.4272 35.7802C55.2306 30.1585 54.2616 20.03 46.0322 14.7544" stroke="#D1FF00" stroke-width="0.7" stroke-miterlimit="10" stroke-linecap="round" stroke-linejoin="round"/>
<path d="M55.8077 31.8121C57.5218 25.9525 56.6975 16.3665 45.8379 11.0242" stroke="#D1FF00" stroke-width="0.7" stroke-miterlimit="10" stroke-linecap="round" stroke-linejoin="round"/>
<path d="M56.9746 30.2216C58.5616 24.2173 57.2012 14.2776 46.0898 9.67529" stroke="#D1FF00" stroke-width="0.7" stroke-miterlimit="10" stroke-linecap="round" stroke-linejoin="round"/>
<path d="M57.7171 29.2675C59.4073 23.9793 59.4765 13.6923 46.5127 7.84399" stroke="#D1FF00" stroke-width="0.7" stroke-miterlimit="10" stroke-linecap="round" stroke-linejoin="round"/>
<path d="M48.5635 47.3861C48.7195 47.3106 53.0588 49.5998 59.4004 47.6177" stroke="#D1FF00" stroke-width="0.9" stroke-miterlimit="10" stroke-linecap="round" stroke-linejoin="round"/>
<path d="M46.9844 5.56747C50.0501 4.25863 51.3589 5.67696 56.7063 5.29563C62.0537 4.91431 62.5986 4.85893 62.4891 6.33264C62.3796 7.80634 62.1619 11.8436 61.1249 11.0797C60.0879 10.3158 58.2329 9.4424 54.4687 11.2433" stroke="#D1FF00" stroke-width="0.9" stroke-miterlimit="10" stroke-linecap="round" stroke-linejoin="round"/>
<path d="M62.4252 5.70581C61.9872 6.52384 60.73 6.75792 60.6129 8.57142C60.4959 10.3849 60.9351 11.057 61.3731 11.174" stroke="#D1FF00" stroke-width="0.9" stroke-miterlimit="10" stroke-linecap="round" stroke-linejoin="round"/>
<path d="M54.0635 10.9036C56.0582 9.7684 58.1763 9.15425 60.2629 10.044" stroke="#D1FF00" stroke-width="0.9" stroke-miterlimit="10" stroke-linecap="round" stroke-linejoin="round"/>
<path d="M52.5 9.5C54.4947 8.36483 58.2599 8.32543 60.5 8.99999" stroke="#D1FF00" stroke-width="0.9" stroke-miterlimit="10" stroke-linecap="round" stroke-linejoin="round"/>
<path d="M51.3008 8.60168C53.2955 7.46651 58.2901 7.17065 60.5 8" stroke="#D1FF00" stroke-width="0.9" stroke-miterlimit="10" stroke-linecap="round" stroke-linejoin="round"/>
</svg>
