<svg width="64" height="64" viewBox="0 0 64 64" fill="none" xmlns="http://www.w3.org/2000/svg">
<path d="M50.5789 17.5606C50.9872 14.518 49.8191 11.1492 49.0717 9.37815C48.8536 8.86462 49.3377 8.3328 49.8903 8.48031C53.5769 9.45888 63.2572 12.4702 62.6535 16.9687C61.8333 23.0471 58.3688 28.7256 55.8988 33.1048C53.4289 37.484 56.1768 42.2096 57.7181 46.5574C58.7553 49.4833 59.1455 52.8385 59.2898 54.7201C59.3571 55.598 58.7852 56.388 57.9067 56.5578C57.0491 56.7237 55.8598 56.8905 54.4608 56.9174C52.0519 56.9639 50.2407 57.2694 47.1344 56.33C45.9869 55.9831 45.5397 54.6528 46.0987 53.5882C47.4575 51.0008 49.6395 46.4625 49.8874 43.5751C50.2504 39.3472 50.8655 33.5818 46.9763 28.3627C43.0871 23.1435 43.1722 22.7505 43.475 21.9889C42.549 21.0382 41.5515 20.3175 42.5213 18.7949C42.0242 17.7914 40.9127 16.5359 41.9102 15.3679C41.3282 14.5647 40.6624 13.6614 41.9426 12.911C41.2024 11.6781 40.9104 9.95047 42.5469 9.01382C44.1834 8.07716 45.6156 8.27323 45.066 9.12204C44.5165 9.97085 43.7398 11.3384 44.2505 12.1789M43.2923 8.66073C41.8734 9.7279 42.7044 10.7254 45.2734 13.1945C47.8424 15.6635 54.8578 20.6875 55.2563 24.0479C55.6548 27.4083 55.0075 29.7721 53.8298 34.3007C52.652 38.8293 55.8541 44.3976 55.4531 56.3014M41.9033 15.3739C48.2018 19.9267 54.0814 23.5317 54.6714 31.288M43.3891 21.8528C49.6876 26.4056 53.2736 28.5664 53.6291 35.4383" stroke="#D1FF00" stroke-miterlimit="10"/>
</svg>
