<svg width="64" height="64" viewBox="0 0 64 64" fill="none" xmlns="http://www.w3.org/2000/svg">
<path d="M61.7228 60.0707C57.3998 61.3247 53.1641 61.2475 49 60.0707C49 60.0707 51.3636 49.6006 50.4847 40.4552C49.6057 31.3097 49.234 25.7718 49.234 21.5506V12.6761C49.234 11.4445 51.6379 10.177 51.6379 10.177V21.7275C51.6379 28.7042 51.395 30.3949 54.0923 38.0759C56.7896 45.7568 59.4947 48.4048 61.7228 60.0718V60.0707Z" stroke="#D1FF00" stroke-width="0.9" stroke-miterlimit="10" stroke-linecap="round" stroke-linejoin="round"/>
<path d="M59.535 51.4963C60.8563 45.8419 60.433 38.4969 59.9583 33.3721C59.4835 28.2474 59.4824 23.5963 59.4824 18.5768C59.4824 13.5573 59.4824 5.873 59.4824 5.873C60.5539 5.33556 61.7083 4.69175 62.0185 5.16425C62.0185 5.16425 62.3118 17.578 62.0185 26.1323C61.7666 33.474 60.4521 43.2252 60.4521 43.2252" stroke="#D1FF00" stroke-width="0.9" stroke-miterlimit="10" stroke-linecap="round" stroke-linejoin="round"/>
<path d="M59.454 7.32739C56.4466 9.60816 53.3798 11.0212 51.623 11.7311" stroke="#D1FF00" stroke-width="0.9" stroke-miterlimit="10" stroke-linecap="round" stroke-linejoin="round"/>
<path d="M59.4686 8.49512C56.4611 10.7759 53.3798 12.1721 51.623 12.882" stroke="#D1FF00" stroke-width="0.9" stroke-miterlimit="10" stroke-linecap="round" stroke-linejoin="round"/>
<path d="M50.9744 10.6575V21.8687C50.9744 28.8454 50.7314 30.5361 53.4287 38.2171C56.126 45.898 58.8311 48.546 61.0593 60.213" stroke="#D1FF00" stroke-width="0.9" stroke-miterlimit="10" stroke-linecap="round" stroke-linejoin="round"/>
<path d="M50.2389 11.1221V22.3333C50.2389 29.31 50.0575 31.5953 52.7537 39.2762C55.4498 46.9572 57.6511 48.7845 59.8793 60.4514" stroke="#D1FF00" stroke-width="0.7" stroke-miterlimit="10" stroke-linecap="round" stroke-linejoin="round"/>
<path d="M49.877 33.7817C51.8229 44.89 55.1125 46.6344 58.8075 60.6852" stroke="#D1FF00" stroke-width="0.7" stroke-miterlimit="10" stroke-linecap="round" stroke-linejoin="round"/>
<path d="M50.5479 41.2993C51.2857 45.5272 53.6684 47.743 57.1629 60.8533" stroke="#D1FF00" stroke-width="0.7" stroke-miterlimit="10" stroke-linecap="round" stroke-linejoin="round"/>
<path d="M55.7897 61C54.6622 56.1742 50.7002 45.6001 50.7002 45.6001" stroke="#D1FF00" stroke-width="0.7" stroke-miterlimit="10" stroke-linecap="round" stroke-linejoin="round"/>
<path d="M53.7828 60.8946C53.0427 55.5045 50.5771 48.7417 50.5771 48.7417" stroke="#D1FF00" stroke-width="0.7" stroke-miterlimit="10" stroke-linecap="round" stroke-linejoin="round"/>
<path d="M51.6939 60.5387C51.3021 57.6802 49.9932 54.0928 49.9932 54.0928" stroke="#D1FF00" stroke-width="0.7" stroke-miterlimit="10" stroke-linecap="round" stroke-linejoin="round"/>
</svg>
