<svg width="64" height="64" viewBox="0 0 64 64" fill="none" xmlns="http://www.w3.org/2000/svg">
<path d="M42.0555 46.4372L40.8256 48.6053C40.6676 48.8842 40.6719 49.2266 40.8362 49.5012L45.8521 57.8834H63.5061L56.9729 45.9982L44.5788 45.4501C43.6352 45.4034 42.717 45.7628 42.0565 46.4372H42.0555Z" stroke="#D1FF00" stroke-width="0.9" stroke-miterlimit="10" stroke-linejoin="round"/>
<path d="M44.0439 45.5103L51.1146 57.8916" stroke="#D1FF00" stroke-width="0.9" stroke-miterlimit="10" stroke-linejoin="round"/>
<path d="M54.6895 45.874L61.4802 57.932" stroke="#D1FF00" stroke-width="0.9" stroke-miterlimit="10" stroke-linejoin="round"/>
<path d="M50.8443 45.6831C52.3922 45.1668 52.4527 43.2107 52.4527 43.2107C53.8617 42.4844 54.272 41.3224 54.1618 39.9335C56.0108 37.5141 56.6957 35.3067 53.0559 33.8881C53.5182 33.4396 53.8214 32.9402 53.3507 32.1928C53.867 32.2256 54.3494 32.1821 54.5307 31.4559C54.5307 31.4559 58.2172 33.7418 60.5762 29.17C62.9352 24.5983 59.1756 23.9357 59.1756 23.9357C60.6557 21.7664 59.7948 19.8506 57.4442 19.5898C57.422 19.4 57.4326 19.153 57.1113 18.9229C57.1113 18.9229 60.2008 17.0028 58.8734 15.3075C57.546 13.6122 55.1944 14.3522 55.1944 14.3522C54.5795 13.0937 53.1196 12.5488 51.666 12.2795C51.666 12.2795 54.9198 9.78581 52.5407 8.60153C47.653 6.16936 45.4085 12.7375 46.5716 14.524C44.819 15.0647 43.7376 15.8344 43.0007 17.375C39.5157 19.4021 38.4258 21.8502 39.0503 24.6004C36.633 26.019 35.4953 27.4196 35.5112 28.8021C34.327 29.469 33.7618 30.3935 33.8891 31.6033C28.9982 36.8938 31.3286 38.1915 33.5201 39.5656C32.0432 42.0868 32.1005 44.0578 35.5844 44.8C35.3363 45.9736 33.7968 45.8401 33.2932 47.1685C32.1153 50.2792 35.1158 51.0967 38.0706 50.5634C38.0706 50.5634 39.0969 52.2884 41.456 52.8047C38.4332 54.2795 38.9019 60.0609 45.3894 56.9651" stroke="#D1FF00" stroke-width="0.9" stroke-miterlimit="10" stroke-linejoin="round"/>
<path d="M51.4092 10.7549C50.8865 9.2854 49.1233 9.25253 47.8171 11.2118C46.5109 13.1711 47.4906 14.9343 48.1765 15.3913C48.8625 15.8482 50.0054 14.1179 50.2991 13.1054C50.5928 12.0929 51.4092 10.7549 51.4092 10.7549Z" stroke="#D1FF00" stroke-width="0.7" stroke-miterlimit="10" stroke-linejoin="round"/>
<path d="M52.3556 13.9878C53.823 15.77 54.8366 15.0321 56.4693 15.4244C58.1021 15.8167 58.1668 16.5673 57.2857 17.318C56.4047 18.0686 55.882 18.885 55.6201 19.7989C55.3582 20.7128 54.7062 21.6278 53.4646 20.452C52.2231 19.2762 51.7343 19.5052 50.2977 19.4077C48.8611 19.3101 47.4902 17.6774 48.8611 16.8281C50.232 15.9789 50.4939 15.065 50.6243 14.4776C50.7547 13.8902 51.8976 13.4333 52.3546 13.9878H52.3556Z" stroke="#D1FF00" stroke-width="0.7" stroke-miterlimit="10" stroke-linejoin="round"/>
<path d="M46.0109 17.4842C46.0787 17.4842 46.1424 17.5118 46.1879 17.5616C46.8357 18.2582 47.703 17.2616 47.2301 16.599C46.7403 15.913 46.4138 15.7497 45.4012 16.0116C44.3887 16.2735 44.1936 16.6976 44.781 17.1216C45.2327 17.4482 45.7808 17.4853 46.0098 17.4842H46.0109Z" stroke="#D1FF00" stroke-width="0.7" stroke-miterlimit="10" stroke-linejoin="round"/>
<path d="M45.3097 19.3279L44.2028 18.5275C43.8752 18.291 43.4214 18.3546 43.167 18.6685C42.8372 19.0745 42.5393 19.7022 42.8871 20.4518C43.0111 20.72 43.1288 20.9416 43.238 21.1229C43.5274 21.6074 44.2092 21.6573 44.5686 21.2226L45.42 20.192C45.6394 19.9259 45.5885 19.5294 45.3097 19.3279Z" stroke="#D1FF00" stroke-width="0.7" stroke-miterlimit="10" stroke-linejoin="round"/>
<path d="M56.2669 20.9924L55.4855 21.7887C55.2416 22.0368 55.2067 22.4238 55.4017 22.7121C55.5703 22.9613 55.5576 23.291 55.3689 23.5253L54.9999 23.9844C54.7179 24.3354 54.791 24.8517 55.1611 25.1104L55.6382 25.4433C55.9976 25.6946 56.48 25.6723 56.815 25.3903C57.4597 24.8485 58.3715 23.871 58.2654 22.7397C58.1944 21.9838 57.9166 21.4388 57.6272 21.0656C57.2921 20.6341 56.6496 20.6033 56.2669 20.9935V20.9924Z" stroke="#D1FF00" stroke-width="0.7" stroke-miterlimit="10" stroke-linejoin="round"/>
<path d="M47.9262 24.1984L46.6879 23.311C46.2786 23.0184 45.705 23.1467 45.4612 23.5877L45.1982 24.0627C44.9056 24.93 45.3297 26.0189 46.2267 26.2002L47.5753 26.1387C47.8987 26.2044 48.2104 26.32 48.4987 26.4822L49.7859 27.2063C50.1665 27.4205 50.6436 27.3516 50.9489 27.0399L51.3349 26.6444C51.6837 26.2871 51.6519 25.7061 51.2649 25.3901L50.7104 24.9364C50.4814 24.7487 50.1983 24.6384 49.9025 24.6225L48.9769 24.5706C48.5984 24.5494 48.2337 24.42 47.9252 24.1995L47.9262 24.1984Z" stroke="#D1FF00" stroke-width="0.7" stroke-miterlimit="10" stroke-linejoin="round"/>
<path d="M47.3239 20.4709C48.3385 20.1507 49.1135 20.685 49.8345 21.3254C50.5555 21.9658 51.1428 21.2448 52.238 21.6997C53.3333 22.1545 53.627 23.0886 53.1997 23.6494C52.7724 24.2103 52.238 23.6229 51.2764 23.4894C50.3148 23.3558 49.1135 23.9696 48.1784 22.902C47.2433 21.8343 46.763 22.2881 46.5764 21.7007C46.3898 21.1134 47.3239 20.4719 47.3239 20.4719V20.4709Z" stroke="#D1FF00" stroke-width="0.7" stroke-miterlimit="10" stroke-linejoin="round"/>
<path d="M52.8239 27.3336C52.6108 28.8232 50.9006 28.9621 51.1413 30.0574C51.382 31.1526 51.7828 31.2862 52.3966 31.4463C53.0105 31.6064 53.9191 31.1261 54.586 29.7107C55.2529 28.2952 55.254 27.3071 54.6125 26.8003C53.9711 26.2935 52.9299 26.5862 52.8228 27.3347L52.8239 27.3336Z" stroke="#D1FF00" stroke-width="0.7" stroke-miterlimit="10" stroke-linejoin="round"/>
<path d="M48.5522 27.9487C49.7874 28.8107 50.0482 29.0704 49.6474 29.872C49.2467 30.6735 48.1249 30.6194 47.3775 30.0055C46.63 29.3917 45.802 29.3641 45.9886 28.4565C46.1752 27.549 47.404 27.1482 48.5522 27.9487Z" stroke="#D1FF00" stroke-width="0.7" stroke-miterlimit="10" stroke-linejoin="round"/>
<path d="M41.9608 22.3019C42.9913 23.148 43.3879 23.9665 42.7803 24.6281C42.1728 25.2897 40.8507 24.7606 40.5602 23.729C40.2697 22.6974 40.4542 21.6149 41.0098 20.9809C41.5653 20.3469 42.1463 20.5048 41.9088 21.2184C41.6713 21.9319 41.9618 22.3019 41.9618 22.3019H41.9608Z" stroke="#D1FF00" stroke-width="0.7" stroke-miterlimit="10" stroke-linejoin="round"/>
<path d="M39.9001 25.5791C41.1427 26.1081 41.4067 26.6361 40.8511 27.0061C40.2956 27.3761 40.1111 26.5831 39.1335 26.7156C38.156 26.8481 37.733 26.3191 38.4995 25.843C39.2661 25.367 39.9001 25.5791 39.9001 25.5791Z" stroke="#D1FF00" stroke-width="0.7" stroke-miterlimit="10" stroke-linejoin="round"/>
<path d="M43.6534 27.5871C44.5026 27.9837 44.8694 28.3272 44.6839 29.0142C44.4984 29.7012 43.7594 29.3312 43.3098 28.8297C42.8603 28.3282 41.8298 28.3272 42.1998 27.9052C42.5698 27.4832 43.2568 27.4026 43.6534 27.5882V27.5871Z" stroke="#D1FF00" stroke-width="0.7" stroke-miterlimit="10" stroke-linejoin="round"/>
<path d="M38.8698 28.0102C40.3297 28.4968 39.6628 29.0937 39.3458 29.4637C39.0288 29.8338 39.5303 31.8948 38.4733 31.2078C37.4162 30.5208 36.8352 30.4148 36.2531 30.2833C35.6711 30.1518 35.8566 28.9888 36.7027 28.4067C37.5487 27.8246 38.3937 27.8522 38.8698 28.0102Z" stroke="#D1FF00" stroke-width="0.7" stroke-miterlimit="10" stroke-linejoin="round"/>
<path d="M41.8563 31.3139C42.7829 31.6722 42.9399 32.1599 42.3058 32.4504C41.6718 32.7409 41.4068 32.7674 40.9318 32.1069C40.4568 31.4464 41.0378 30.9968 41.8563 31.3139Z" stroke="#D1FF00" stroke-width="0.7" stroke-miterlimit="10" stroke-linejoin="round"/>
<path d="M46.4544 32.0803C47.3895 32.7228 47.4319 32.8734 46.7979 33.7184C46.1639 34.5634 45.2913 35.2249 44.5778 34.2209C43.8643 33.2169 43.8908 32.4238 44.5248 32.0538C45.1588 31.6838 46.0314 31.7898 46.4544 32.0803Z" stroke="#D1FF00" stroke-width="0.7" stroke-miterlimit="10" stroke-linejoin="round"/>
<path d="M49.0979 33.6134C48.6218 34.2475 48.6483 34.697 49.3088 35.0405C49.9694 35.384 50.1019 35.8336 50.5514 35.0935C51.001 34.3535 51.371 34.01 50.5514 33.2434C49.7319 32.4769 49.1774 32.3708 49.1509 32.9794C49.1244 33.588 49.0979 33.6134 49.0979 33.6134Z" stroke="#D1FF00" stroke-width="0.7" stroke-miterlimit="10" stroke-linejoin="round"/>
<path d="M53.1134 36.1239C54.0379 36.6264 54.567 36.6784 53.8534 35.8864C53.1399 35.0944 52.6108 35.0138 52.4529 35.3838C52.2949 35.7539 53.1134 36.1239 53.1134 36.1239Z" stroke="#D1FF00" stroke-width="0.7" stroke-miterlimit="10" stroke-linejoin="round"/>
<path d="M52.6123 37.8947C53.1668 39.1372 52.8498 41.1983 51.9253 40.4318C51.0008 39.6652 49.4412 39.7183 50.2872 38.7937C51.1333 37.8692 51.1068 36.9171 51.5818 36.9701C52.0568 37.0231 52.6123 37.8947 52.6123 37.8947Z" stroke="#D1FF00" stroke-width="0.7" stroke-miterlimit="10" stroke-linejoin="round"/>
<path d="M48.198 37.075C49.1034 38.0706 49.519 39.3746 48.1715 39.2951C46.8239 39.2156 45.3968 38.6346 46.2418 37.6571C47.0868 36.6795 47.4049 36.2035 48.198 37.0761V37.075Z" stroke="#D1FF00" stroke-width="0.7" stroke-miterlimit="10" stroke-linejoin="round"/>
<path d="M44.0486 35.6215C45.2997 36.247 45.5287 36.4145 44.8947 37.1546C44.2607 37.8946 43.8376 37.9211 43.0711 37.3656C42.3045 36.81 41.3535 36.7846 42.0405 35.9915C42.7276 35.1984 43.3096 35.2515 44.0486 35.6215Z" stroke="#D1FF00" stroke-width="0.7" stroke-miterlimit="10" stroke-linejoin="round"/>
<path d="M39.9803 33.798C40.9366 34.5031 41.0904 34.9611 40.5613 35.5156C40.0322 36.0701 40.1913 37.1537 38.8437 36.2557C37.4962 35.3576 38.1567 34.8551 38.4472 34.2211C38.7377 33.587 39.4777 33.428 39.9803 33.798Z" stroke="#D1FF00" stroke-width="0.7" stroke-miterlimit="10" stroke-linejoin="round"/>
<path d="M35.6972 32.953C36.1721 34.0939 37.6268 33.9041 36.7277 34.3801C35.8286 34.8562 34.9041 33.6136 34.7196 32.9265C34.5351 32.2395 35.3006 32.002 35.6972 32.953Z" stroke="#D1FF00" stroke-width="0.7" stroke-miterlimit="10" stroke-linejoin="round"/>
<path d="M34.165 34.485C34.7407 35.6693 36.1996 35.3046 35.6981 36.2291C35.1966 37.1536 34.165 38.7662 33.161 37.6562C32.1569 36.5461 32.5534 35.3565 32.8705 34.538C33.1875 33.7195 33.7165 33.5605 34.165 34.485Z" stroke="#D1FF00" stroke-width="0.7" stroke-miterlimit="10" stroke-linejoin="round"/>
<path d="M38.0236 37.5511C38.752 38.3675 38.8697 38.6612 38.5527 38.9782C38.2357 39.2952 37.2316 39.6122 36.7291 38.2646C36.2265 36.9171 37.3631 36.8111 38.0236 37.5511Z" stroke="#D1FF00" stroke-width="0.7" stroke-miterlimit="10" stroke-linejoin="round"/>
<path d="M41.7241 39.1107C42.7854 40.7032 43.8648 40.0883 43.7068 40.9873C43.5488 41.8864 42.0687 42.3614 40.8791 41.6744C39.6896 40.9873 39.6896 40.1678 40.1656 39.4277C40.6416 38.6877 41.3552 38.5552 41.7252 39.1107H41.7241Z" stroke="#D1FF00" stroke-width="0.7" stroke-miterlimit="10" stroke-linejoin="round"/>
<path d="M46.164 40.5114C47.0907 40.8623 47.3271 41.3574 46.9836 41.7539C46.6401 42.1505 45.1865 42.2035 44.843 41.4369C44.4995 40.6704 45.3975 40.2209 46.164 40.5124V40.5114Z" stroke="#D1FF00" stroke-width="0.7" stroke-miterlimit="10" stroke-linejoin="round"/>
<path d="M50.0487 42.5196C50.6297 42.8101 51.6348 43.1271 50.8418 43.8672C50.3318 44.3432 49.1507 44.5542 48.7807 43.1801C48.4106 41.8061 49.367 42.1782 50.0498 42.5196H50.0487Z" stroke="#D1FF00" stroke-width="0.7" stroke-miterlimit="10" stroke-linejoin="round"/>
<path d="M44.975 45.4795C44.975 45.4795 45.134 45.083 44.922 44.7395C44.7099 44.396 44.2445 44.2613 42.1738 44.1585C41.1168 44.1055 40.5358 43.9994 39.5307 43.1544C38.5256 42.3094 37.8396 42.4674 37.4431 43.4714C37.0466 44.4755 36.544 45.9026 38.3941 45.7181C40.2442 45.5336 41.8558 45.6386 42.4378 46.0616" stroke="#D1FF00" stroke-width="0.7" stroke-miterlimit="10" stroke-linejoin="round"/>
<path d="M46.8516 45.4797C47.1686 44.7662 47.5386 44.3962 48.0942 44.7927C48.6497 45.1892 48.5702 45.5857 48.5702 45.5857" stroke="#D1FF00" stroke-width="0.7" stroke-miterlimit="10" stroke-linejoin="round"/>
<path d="M41.1163 48.1228C39.9267 46.3787 39.7157 46.7223 38.2621 46.9067C36.8085 47.0912 36.5976 45.9557 35.884 46.5367C35.1705 47.1177 34.2195 47.6203 35.197 48.8099C36.1745 49.9994 37.3111 49.0473 38.2102 49.1799C39.1092 49.3124 39.3202 49.8139 40.2978 50.4744C41.2753 51.1349 41.6983 50.977 41.6983 50.977" stroke="#D1FF00" stroke-width="0.7" stroke-miterlimit="10" stroke-linejoin="round"/>
<path d="M43.31 53.9107C42.676 53.4346 42.147 53.9107 41.7239 54.5447C41.3009 55.1787 41.5649 55.5753 42.411 56.0513C43.257 56.5273 44.3671 56.5538 43.8645 55.3643C43.362 54.1747 43.31 53.9107 43.31 53.9107Z" stroke="#D1FF00" stroke-width="0.7" stroke-miterlimit="10" stroke-linejoin="round"/>
<path d="M35.9361 39.5327C37.1267 40.7731 37.3632 40.3522 37.9707 40.6692C38.5782 40.9862 38.3407 41.2502 37.2571 42.1228C36.1736 42.9954 34.5207 44.0556 34.4295 41.9638C34.3765 40.7477 34.509 40.0342 34.773 39.4531C35.037 38.8721 35.3021 38.8721 35.9361 39.5327Z" stroke="#D1FF00" stroke-width="0.7" stroke-miterlimit="10" stroke-linejoin="round"/>
</svg>
