<svg width="64" height="64" viewBox="0 0 64 64" fill="none" xmlns="http://www.w3.org/2000/svg">
<path d="M40 56C52.7025 56 63 45.7025 63 33C63 20.2975 52.7025 10 40 10C27.2975 10 17 20.2975 17 33C17 45.7025 27.2975 56 40 56Z" stroke="#D2FF00" stroke-miterlimit="10"/>
<path d="M43.5864 55.0069C43.8602 55.0069 44.0821 54.785 44.0821 54.5112C44.0821 54.2375 43.8602 54.0156 43.5864 54.0156C43.3127 54.0156 43.0908 54.2375 43.0908 54.5112C43.0908 54.785 43.3127 55.0069 43.5864 55.0069Z" stroke="#D2FF00" stroke-miterlimit="10"/>
<path d="M54.3042 49.7344C54.5779 49.7344 54.7998 49.5125 54.7998 49.2388C54.7998 48.9651 54.5779 48.7432 54.3042 48.7432C54.0305 48.7432 53.8086 48.9651 53.8086 49.2388C53.8086 49.5125 54.0305 49.7344 54.3042 49.7344Z" stroke="#D2FF00" stroke-miterlimit="10"/>
<path d="M60.521 40.3252C60.7947 40.3252 61.0166 40.1033 61.0166 39.8296C61.0166 39.5559 60.7947 39.334 60.521 39.334C60.2473 39.334 60.0254 39.5559 60.0254 39.8296C60.0254 40.1033 60.2473 40.3252 60.521 40.3252Z" stroke="#D2FF00" stroke-miterlimit="10"/>
<path d="M61.3853 30.3927C61.659 30.3927 61.8809 30.1708 61.8809 29.8971C61.8809 29.6234 61.659 29.4015 61.3853 29.4015C61.1115 29.4015 60.8896 29.6234 60.8896 29.8971C60.8896 30.1708 61.1115 30.3927 61.3853 30.3927Z" stroke="#D2FF00" stroke-miterlimit="10"/>
<path d="M57.9351 21.9493C58.2088 21.9493 58.4307 21.7274 58.4307 21.4536C58.4307 21.1799 58.2088 20.958 57.9351 20.958C57.6614 20.958 57.4395 21.1799 57.4395 21.4536C57.4395 21.7274 57.6614 21.9493 57.9351 21.9493Z" stroke="#D2FF00" stroke-miterlimit="10"/>
<path d="M50.6441 14.8155C50.9178 14.8155 51.1397 14.5936 51.1397 14.3198C51.1397 14.0461 50.9178 13.8242 50.6441 13.8242C50.3703 13.8242 50.1484 14.0461 50.1484 14.3198C50.1484 14.5936 50.3703 14.8155 50.6441 14.8155Z" stroke="#D2FF00" stroke-miterlimit="10"/>
<path d="M40.855 12.0284C41.1287 12.0284 41.3506 11.8065 41.3506 11.5327C41.3506 11.259 41.1287 11.0371 40.855 11.0371C40.5813 11.0371 40.3594 11.259 40.3594 11.5327C40.3594 11.8065 40.5813 12.0284 40.855 12.0284Z" stroke="#D2FF00" stroke-miterlimit="10"/>
<path d="M30.4956 14.9912C30.7693 14.9912 30.9912 14.7693 30.9912 14.4956C30.9912 14.2219 30.7693 14 30.4956 14C30.2219 14 30 14.2219 30 14.4956C30 14.7693 30.2219 14.9912 30.4956 14.9912Z" stroke="#D2FF00" stroke-miterlimit="10"/>
<path d="M21.7759 21.7481C22.0496 21.7481 22.2715 21.5262 22.2715 21.2525C22.2715 20.9787 22.0496 20.7568 21.7759 20.7568C21.5022 20.7568 21.2803 20.9787 21.2803 21.2525C21.2803 21.5262 21.5022 21.7481 21.7759 21.7481Z" stroke="#D2FF00" stroke-miterlimit="10"/>
<path d="M18.4214 33.1944C18.6951 33.1944 18.917 32.9725 18.917 32.6987C18.917 32.425 18.6951 32.2031 18.4214 32.2031C18.1477 32.2031 17.9258 32.425 17.9258 32.6987C17.9258 32.9725 18.1477 33.1944 18.4214 33.1944Z" stroke="#D2FF00" stroke-miterlimit="10"/>
<path d="M21.6743 45.2432C21.9481 45.2432 22.17 45.0213 22.17 44.7476C22.17 44.4738 21.9481 44.252 21.6743 44.252C21.4006 44.252 21.1787 44.4738 21.1787 44.7476C21.1787 45.0213 21.4006 45.2432 21.6743 45.2432Z" stroke="#D2FF00" stroke-miterlimit="10"/>
<path d="M31.312 53.4405C31.5858 53.4405 31.8076 53.2186 31.8076 52.9448C31.8076 52.6711 31.5858 52.4492 31.312 52.4492C31.0383 52.4492 30.8164 52.6711 30.8164 52.9448C30.8164 53.2186 31.0383 53.4405 31.312 53.4405Z" stroke="#D2FF00" stroke-miterlimit="10"/>
<path d="M40.0006 52C50.4943 52 59.0011 43.4932 59.0011 32.9995C59.0011 22.5057 50.4943 13.9989 40.0006 13.9989C29.5068 13.9989 21 22.5057 21 32.9995C21 43.4932 29.5068 52 40.0006 52Z" stroke="#D2FF00" stroke-miterlimit="10"/>
<path d="M40.0008 38.6999C43.1488 38.6999 45.7008 36.148 45.7008 32.9999C45.7008 29.8519 43.1488 27.2999 40.0008 27.2999C36.8528 27.2999 34.3008 29.8519 34.3008 32.9999C34.3008 36.148 36.8528 38.6999 40.0008 38.6999Z" stroke="#D2FF00" stroke-miterlimit="10"/>
<path d="M40.0007 36.3363C41.8435 36.3363 43.3374 34.8425 43.3374 32.9997C43.3374 31.1568 41.8435 29.663 40.0007 29.663C38.1579 29.663 36.6641 31.1568 36.6641 32.9997C36.6641 34.8425 38.1579 36.3363 40.0007 36.3363Z" stroke="#D2FF00" stroke-miterlimit="10"/>
<path d="M42.1475 27.7189C42.1475 27.7189 45.5368 28.1354 47.9443 27.3035C50.3519 26.4717 56.7586 24.1122 56.7586 24.1122" stroke="#D2FF00" stroke-miterlimit="10"/>
<path d="M45.4219 34.7715C45.4219 34.7715 47.2893 31.912 49.4772 30.6086C51.665 29.3053 57.5992 25.9286 57.5992 25.9286" stroke="#D2FF00" stroke-miterlimit="10"/>
<path d="M48.7215 28.2744C48.2627 28.4437 47.9903 28.8728 48.1379 29.1921L48.2123 29.3511C48.3622 29.6738 48.8714 29.7413 49.3005 29.4965L53.2746 27.2228C53.7014 26.9791 53.4851 26.5168 53.024 26.6873L48.7215 28.2744Z" fill="#D2FF00"/>
<path d="M43.8254 37.1824C43.8254 37.1824 41.9945 40.0659 41.713 42.597C41.4315 45.1282 40.8125 51.9286 40.8125 51.9286" stroke="#D2FF00" stroke-miterlimit="10"/>
<path d="M36.0508 37.1161C36.0508 37.1161 37.8324 40.0294 38.0704 42.5662C38.3084 45.1019 38.8119 51.9115 38.8119 51.9115" stroke="#D2FF00" stroke-miterlimit="10"/>
<path d="M40.0911 47.4518L40.5031 42.8839C40.5465 42.3964 40.2765 41.9662 39.9252 41.9639H39.7501C39.3943 41.9593 39.1151 42.3907 39.1517 42.8839L39.4995 47.4495C39.5373 47.9393 40.0465 47.9416 40.0911 47.453V47.4518Z" fill="#D2FF00"/>
<path d="M34.4681 34.2453C34.4681 34.2453 32.873 31.2255 30.8145 29.7254C28.756 28.2253 23.1582 24.3153 23.1582 24.3153" stroke="#D2FF00" stroke-miterlimit="10"/>
<path d="M38.3824 27.5256C38.3824 27.5256 34.9691 27.6275 32.6485 26.577C30.3279 25.5266 24.166 22.5858 24.166 22.5858" stroke="#D2FF00" stroke-miterlimit="10"/>
<path d="M27.4055 25.9083L31.1679 28.5309C31.5695 28.8113 32.0764 28.7895 32.2538 28.4851L32.3419 28.3341C32.5215 28.0263 32.2858 27.5697 31.8384 27.358L27.7007 25.3956C27.2568 25.1851 27.0016 25.6268 27.4044 25.9071L27.4055 25.9083Z" fill="#D2FF00"/>
</svg>
