<svg width="64" height="64" viewBox="0 0 64 64" fill="none" xmlns="http://www.w3.org/2000/svg">
<path d="M51.6422 59.1543C43.2738 59.1543 40.3563 58.5643 40.3563 57.5791C40.3563 56.7577 40.5078 56.6224 40.8813 56.529C40.788 56.123 40.5214 55.1893 42.0627 54.4288C42.3685 53.3327 42.8868 54.1108 42.9815 52.1324C43.0939 49.7791 41.5904 48.591 43.1778 47.867C43.2427 47.0077 42.5526 45.9251 46.5892 44.4555C51.3567 42.7193 49.2795 39.9276 50.4608 39.14C50.1455 38.7395 48.9601 38.0723 50.3296 36.7746C50.3945 32.2494 47.3768 32.0532 48.3606 30.7406C45.2117 29.1018 40.6188 25.034 40.0274 12.698C39.8935 9.87788 40.1587 9.94148 42.9152 9.87653C45.6718 9.81157 51.6422 9.87653 51.6422 9.87653" stroke="#D1FF00" stroke-miterlimit="10"/>
<path d="M50.4619 39.1414C50.4619 39.1414 50.9978 39.2699 51.6433 39.2699" stroke="#D1FF00" stroke-miterlimit="10"/>
<path d="M43.2227 47.8936C44.197 48.3645 46.7519 48.4971 51.6397 48.4971" stroke="#D1FF00" stroke-miterlimit="10"/>
<path d="M40.3953 10.2493C39.4048 11.2277 46.7555 12.5453 51.6433 12.5453" stroke="#D1FF00" stroke-miterlimit="10"/>
<path d="M42.0625 54.4297C43.0368 54.9006 46.7555 55.3621 51.6433 55.3621" stroke="#D1FF00" stroke-miterlimit="10"/>
<path d="M40.8506 56.5237C42.0604 57.1583 46.7534 57.586 51.6412 57.586" stroke="#D1FF00" stroke-miterlimit="10"/>
<path d="M50.3311 36.7759C50.3311 36.7759 51.028 36.9044 51.6437 36.9044" stroke="#D1FF00" stroke-miterlimit="10"/>
<path d="M48.3623 30.7429C48.3623 30.7429 49.8319 31.0312 51.4734 31.0312" stroke="#D1FF00" stroke-miterlimit="10"/>
<path d="M51.2422 59.1545C59.6105 59.1545 62.5281 58.5645 62.5281 57.5794C62.5281 56.758 62.3765 56.6226 62.003 56.5293C62.0964 56.1233 62.363 55.1896 60.8217 54.4291C60.5158 53.3329 59.9976 54.1111 59.9028 52.1326C59.7905 49.7794 61.294 48.5912 59.7066 47.8673C59.6417 47.008 60.3318 45.9254 56.2951 44.4558C51.5277 42.7196 53.6049 39.9279 52.4236 39.1403C52.7389 38.7398 53.9243 38.0726 52.5548 36.7749C52.4899 32.2497 55.5076 32.0535 54.5238 30.7408C57.6741 29.1007 62.2669 25.0316 62.8569 12.6956C62.9923 9.87679 62.7257 9.93904 59.9691 9.87408C57.2126 9.80913 51.2422 9.87408 51.2422 9.87408" stroke="#D1FF00" stroke-miterlimit="10"/>
<path d="M52.4236 39.1414C52.4236 39.1414 51.8877 39.2699 51.2422 39.2699" stroke="#D1FF00" stroke-miterlimit="10"/>
<path d="M59.6593 47.8936C58.6849 48.3645 56.13 48.4971 51.2422 48.4971" stroke="#D1FF00" stroke-miterlimit="10"/>
<path d="M62.4902 10.2493C63.4808 11.2277 56.13 12.5453 51.2422 12.5453" stroke="#D1FF00" stroke-miterlimit="10"/>
<path d="M60.823 54.4297C59.8487 54.9006 56.13 55.3621 51.2422 55.3621" stroke="#D1FF00" stroke-miterlimit="10"/>
<path d="M62.0328 56.5237C60.823 57.1583 56.13 57.586 51.2422 57.586" stroke="#D1FF00" stroke-miterlimit="10"/>
<path d="M52.5548 36.7759C52.5548 36.7759 51.8579 36.9044 51.2422 36.9044" stroke="#D1FF00" stroke-miterlimit="10"/>
<path d="M54.5183 30.7429C54.5183 30.7429 53.0487 31.0312 51.4072 31.0312" stroke="#D1FF00" stroke-miterlimit="10"/>
</svg>
