<svg width="64" height="64" viewBox="0 0 64 64" fill="none" xmlns="http://www.w3.org/2000/svg">
<path d="M60.2645 55.49C53.8696 56.9498 45.4999 56.8568 39.4199 55.4832" stroke="#D1FF00" stroke-width="0.9" stroke-miterlimit="10" stroke-linecap="round" stroke-linejoin="round"/>
<path d="M51.7646 50.3625L53.4657 50.5633C53.9422 50.62 54.3917 50.8072 54.7609 51.1021L55.2198 51.4696L57.6074 52.1253L57.821 52.8637L58.9841 53.1916C59.3368 53.2902 59.5869 53.5897 59.614 53.9413L59.6978 55.0371L59.8983 55.1142C60.172 55.2197 60.369 55.4534 60.4198 55.7313L60.8362 58.0022C60.914 58.4242 60.6227 58.8496 60.1874 58.9403C53.179 60.4002 46.3606 60.3072 39.6979 58.9335C39.2638 58.8439 38.9783 58.4435 39.0408 58.0204L39.2956 55.6871C39.3416 55.3763 39.5469 55.1086 39.8418 54.9736L40.2653 54.7796L40.4635 53.7961C40.4918 53.5137 40.631 53.2517 40.8528 53.0634L41.2326 52.7412L41.3105 52.216C41.3647 51.8519 41.675 51.574 42.056 51.5468L43.7064 51.4288L43.7181 51.3698C43.7889 51.0091 44.0803 50.7267 44.4543 50.6575L46 50.5" stroke="#D1FF00" stroke-width="0.9" stroke-miterlimit="10" stroke-linejoin="round"/>
<path d="M40.5811 53.4016C40.7745 53.4572 41.5035 53.6001 42.1547 53.7249C42.8519 53.8576 43.4217 54.3397 43.647 54.9885L43.8369 55.5364C43.8369 55.5364 47.6295 55.9255 51.2357 55.4298C55.1203 54.8966 59.5228 53.616 59.5228 53.616" stroke="#D1FF00" stroke-width="0.9" stroke-miterlimit="10" stroke-linecap="round" stroke-linejoin="round"/>
<path d="M57.6088 52.1267C56.7111 52.6326 52.7297 52.4636 48.8357 51.9554C44.9416 51.4472 43.526 50.8608 44.4544 50.6577" stroke="#D1FF00" stroke-width="0.9" stroke-miterlimit="10" stroke-linecap="round" stroke-linejoin="round"/>
<path d="M49.2521 51.3733C48.7626 48.5001 44.5984 45.2968 43.0802 42.7536C41.5619 40.2104 39.4551 29.6113 39.4551 29.6113C40.2384 45.2967 47.3906 48.3594 45.8724 50.9502L49.2521 51.3745V51.3733Z" stroke="#D1FF00" stroke-width="0.9" stroke-miterlimit="10" stroke-linejoin="round"/>
<path d="M51.9048 50.6704L49.2529 51.3737" stroke="#D1FF00" stroke-width="0.9" stroke-miterlimit="10" stroke-linecap="round" stroke-linejoin="round"/>
<path d="M51.5298 50.239L49.0879 50.4784" stroke="#D1FF00" stroke-width="0.9" stroke-miterlimit="10" stroke-linecap="round" stroke-linejoin="round"/>
<path d="M51.3812 49.7356L48.6396 49.832" stroke="#D1FF00" stroke-width="0.9" stroke-miterlimit="10" stroke-linecap="round" stroke-linejoin="round"/>
<path d="M51.057 49.1127L48.1904 48.9448" stroke="#D1FF00" stroke-width="0.9" stroke-miterlimit="10" stroke-linecap="round" stroke-linejoin="round"/>
<path d="M50.7574 48.6567L47.6172 48.178" stroke="#D1FF00" stroke-width="0.9" stroke-miterlimit="10" stroke-linecap="round" stroke-linejoin="round"/>
<path d="M50.4587 48.0814L46.7451 47.1467" stroke="#D1FF00" stroke-width="0.9" stroke-miterlimit="10" stroke-linecap="round" stroke-linejoin="round"/>
<path d="M50.2087 47.5064L45.5986 45.9014" stroke="#D1FF00" stroke-width="0.9" stroke-miterlimit="10" stroke-linecap="round" stroke-linejoin="round"/>
<path d="M50.0604 47.0039L44.2529 44.2952" stroke="#D1FF00" stroke-width="0.9" stroke-miterlimit="10" stroke-linecap="round" stroke-linejoin="round"/>
<path d="M49.9591 46.4289L42.9814 42.5461" stroke="#D1FF00" stroke-width="0.9" stroke-miterlimit="10" stroke-linecap="round" stroke-linejoin="round"/>
<path d="M49.7865 45.8299L42.0361 40.342" stroke="#D1FF00" stroke-width="0.9" stroke-miterlimit="10" stroke-linecap="round" stroke-linejoin="round"/>
<path d="M49.5111 44.7752L41.1367 37.1548" stroke="#D1FF00" stroke-width="0.9" stroke-miterlimit="10" stroke-linecap="round" stroke-linejoin="round"/>
<path d="M49.4122 43.9368L40.665 34.9258" stroke="#D1FF00" stroke-width="0.9" stroke-miterlimit="10" stroke-linecap="round" stroke-linejoin="round"/>
<path d="M49.1174 42.4756L39.8135 30.8726" stroke="#D1FF00" stroke-width="0.9" stroke-miterlimit="10" stroke-linecap="round" stroke-linejoin="round"/>
<path d="M49.2152 41.2518L38.9805 27.717" stroke="#D1FF00" stroke-width="0.9" stroke-miterlimit="10" stroke-linecap="round" stroke-linejoin="round"/>
<path d="M48.8892 40.1536L39.3965 25.0513" stroke="#D1FF00" stroke-width="0.9" stroke-miterlimit="10" stroke-linecap="round" stroke-linejoin="round"/>
<path d="M48.901 39.4391L38.7666 20.3201" stroke="#D1FF00" stroke-width="0.9" stroke-miterlimit="10" stroke-linecap="round" stroke-linejoin="round"/>
<path d="M48.8329 37.7943L40.0244 17.0974" stroke="#D1FF00" stroke-width="0.9" stroke-miterlimit="10" stroke-linecap="round" stroke-linejoin="round"/>
<path d="M48.7974 34.8077L40.8193 12.3855" stroke="#D1FF00" stroke-width="0.9" stroke-miterlimit="10" stroke-linecap="round" stroke-linejoin="round"/>
<path d="M49.0232 32.309L44.1807 8.55396" stroke="#D1FF00" stroke-width="0.9" stroke-miterlimit="10" stroke-linecap="round" stroke-linejoin="round"/>
<path d="M49.3563 30.6132L47.5986 8.23755" stroke="#D1FF00" stroke-width="0.9" stroke-miterlimit="10" stroke-linecap="round" stroke-linejoin="round"/>
<path d="M50.1942 27.8941L49.832 8.60718" stroke="#D1FF00" stroke-width="0.9" stroke-miterlimit="10" stroke-linecap="round" stroke-linejoin="round"/>
<path d="M51.3809 25.276L55.2773 10.6875" stroke="#D1FF00" stroke-width="0.9" stroke-miterlimit="10" stroke-linecap="round" stroke-linejoin="round"/>
<path d="M52.9141 23.2626L57.1597 12.0305" stroke="#D1FF00" stroke-width="0.9" stroke-miterlimit="10" stroke-linecap="round" stroke-linejoin="round"/>
<path d="M54.7305 21.5851L61.9075 11.8628" stroke="#D1FF00" stroke-width="0.9" stroke-miterlimit="10" stroke-linecap="round" stroke-linejoin="round"/>
<path d="M54.1738 21.9537L59.605 11.561" stroke="#D1FF00" stroke-width="0.9" stroke-miterlimit="10" stroke-linecap="round" stroke-linejoin="round"/>
<path d="M50.8213 26.2493L52.763 7.76782" stroke="#D1FF00" stroke-width="0.9" stroke-miterlimit="10" stroke-linecap="round" stroke-linejoin="round"/>
<path d="M39.4554 29.6114L38.5718 28.0143L39.3929 27.3371L38.6013 25.6447L39.4518 25.1093L37.457 21.2174L39.5391 19.7791L38.8939 17.608L40.0381 16.9308L38.1613 11.2047L39.9508 10.472L40.8309 12.5024L41.9315 11.9568L40.9181 8.49825L42.6782 8.01843L43.0002 9.20267L44.2023 9.00529C44.2023 9.00529 43.3518 5.39474 43.4981 5.39474C43.6443 5.39474 45.5518 5 45.5518 5C45.5518 5 45.8739 6.63569 45.8739 6.55062C45.8739 6.46555 47.1939 6.40996 47.1939 6.40996L47.3697 8.15909L48.6602 8.24416L48.6897 9.06201L49.716 9.17431L49.5993 8.41318L51.2413 8.58219L51.2708 9.06201L52.0046 9.14709L52.2098 7.65205L53.5594 7.76435L53.5004 8.55383L54.6741 9.00529L54.3521 10.5287H55.5542L56 12L57.1679 11.9954L57.3437 11.5439L58.1648 11.7129L58.3405 11.3465L59.4258 11.629V11.1775L60.7164 11.6006L61.0101 11.0652L62.5649 12.2211L56.2879 20.7104" stroke="#D1FF00" stroke-width="0.9" stroke-miterlimit="10" stroke-linecap="round" stroke-linejoin="round"/>
</svg>
