<svg width="34" height="22" viewBox="0 0 34 22" fill="none" xmlns="http://www.w3.org/2000/svg">
<g clip-path="url(#clip0_2903_295)">
<path d="M0 -0.547729H34V22.1189H0V-0.547729Z" fill="#E30A17"/>
<path d="M15.8626 10.7856L20.6114 9.24285L17.6763 13.2822V8.2891L20.6114 12.3284L15.8626 10.7856ZM16.1864 13.593C15.5781 14.5542 14.6742 15.2918 13.6105 15.6949C12.5469 16.098 11.3811 16.1448 10.2886 15.8281C9.19605 15.5115 8.23593 14.8486 7.55268 13.9392C6.86942 13.0298 6.5 11.9231 6.5 10.7856C6.5 9.64818 6.86942 8.54148 7.55268 7.63208C8.23593 6.72269 9.19605 6.05979 10.2886 5.74316C11.3811 5.42652 12.5469 5.47327 13.6105 5.87637C14.6742 6.27947 15.5781 7.01711 16.1864 7.9783C15.6184 7.34625 14.872 6.90137 14.0459 6.7024C13.2197 6.50343 12.3527 6.55974 11.5592 6.86389C10.7657 7.16803 10.0832 7.70571 9.6017 8.40591C9.12022 9.1061 8.86245 9.93588 8.86245 10.7856C8.86245 11.6354 9.12022 12.4652 9.6017 13.1654C10.0832 13.8656 10.7657 14.4033 11.5592 14.7074C12.3527 15.0116 13.2197 15.0679 14.0459 14.8689C14.872 14.6699 15.6184 14.225 16.1864 13.593Z" fill="white"/>
</g>
<defs>
<clipPath id="clip0_2903_295">
<rect y="0.285645" width="34" height="21" rx="3" fill="white"/>
</clipPath>
</defs>
</svg>
