<svg width="64" height="64" viewBox="0 0 64 64" fill="none" xmlns="http://www.w3.org/2000/svg">
<path d="M62.6428 59.3143L60.1143 30.6882L62.6428 12.1449L61.89 12.1169L63.3688 6.33046C58.9312 5.88905 54.3906 5.89129 49.748 6.33046L51.1103 12.1169L50.474 12.1449L53.0563 30.8462L50.4751 59.3143C52.8928 60.2285 60.2252 60.2285 62.6417 59.3143H62.6428Z" stroke="#D1FF00" stroke-width="0.9" stroke-miterlimit="10" stroke-linejoin="round"/>
<path d="M61.8898 12.1157H51.1113" stroke="#D1FF00" stroke-width="0.9" stroke-miterlimit="10" stroke-linejoin="round"/>
<path d="M62.3967 9.71718L61.2148 6.10195L58.4779 12.0485L55.4362 6L53.5776 12.0485L51.2799 6.27111L50.5371 9.58163" stroke="#D1FF00" stroke-width="0.9" stroke-miterlimit="10" stroke-linejoin="round"/>
<path d="M61.7247 48.6792L61.5398 53.7811L59.036 48.4014L56.6822 54.0421L54.1044 48.4383L51.8705 53.8203L51.1904 51.0912" stroke="#D1FF00" stroke-width="0.9" stroke-miterlimit="10" stroke-linejoin="round"/>
<path d="M50.9814 53.6692C53.1974 54.1957 59.9215 54.1957 62.1375 53.6692" stroke="#D1FF00" stroke-width="0.9" stroke-miterlimit="10" stroke-linejoin="round"/>
<path d="M51.4658 48.064C53.563 48.5905 59.5601 48.5905 61.6573 48.064" stroke="#D1FF00" stroke-width="0.9" stroke-miterlimit="10" stroke-linejoin="round"/>
<path d="M56.1709 12.1763V48.3791" stroke="#D1FF00" stroke-width="0.9" stroke-miterlimit="10" stroke-linejoin="round"/>
</svg>
