<svg width="64" height="64" viewBox="0 0 64 64" fill="none" xmlns="http://www.w3.org/2000/svg">
<path d="M52.424 40.11C53.0202 41.9969 54.2774 44.5112 54.2774 44.5112C54.2774 44.5112 55.1002 41.8618 54.9395 36.0717C54.7407 28.9228 50.3719 21.7739 49.3135 18.3318C48.9729 17.2231 48.5409 14.2108 51.9517 11.5513C55.5569 8.74223 55.1695 3.74258 54.3634 5.29115C53.5573 6.83973 53.2011 6.36857 51.1099 8.79247C47.7939 12.6354 48.2595 14.7735 48.2896 18.6779C48.3198 22.5822 50.459 27.9425 50.459 27.9425C50.459 27.9425 51.6369 31.5678 52.3492 35.7513C53.0615 39.9347 50.7381 60.8812 50.7381 60.8812C50.7381 60.8812 54.7184 61.9039 59.8788 60.8846" stroke="#D1FF00" stroke-width="0.86" stroke-miterlimit="10" stroke-linecap="round" stroke-linejoin="round"/>
<path d="M53.2884 42.4502C53.2081 45.3731 54.6305 48.8778 54.6305 48.8778C54.6305 48.8778 55.2914 44.2522 54.7309 42.0103" stroke="#D1FF00" stroke-width="0.86" stroke-miterlimit="10" stroke-linejoin="round"/>
<path d="M52.0886 53.1339C54.211 53.5805 56.3313 53.4677 58.5609 53.0535L58.8635 59.4242C56.6238 59.8562 54.211 59.7982 51.6855 59.4242L52.0886 53.1339Z" stroke="#D1FF00" stroke-width="0.86" stroke-miterlimit="10" stroke-linejoin="round"/>
<path d="M49.5735 19.0832C49.5031 16.4762 50.0312 15.842 51.6524 14.433C53.2735 13.024 53.6252 11.2275 53.6252 11.2275C53.6252 11.2275 54.4358 14.7155 53.3081 15.842" stroke="#D1FF00" stroke-width="0.86" stroke-miterlimit="10" stroke-linejoin="round"/>
<path d="M53.2031 27.8545C51.4413 19.5768 50.0334 16.5779 51.5473 16.0889C52.6392 15.7361 55.5276 15.7361 55.5276 15.7361" stroke="#D1FF00" stroke-width="0.86" stroke-miterlimit="10" stroke-linejoin="round"/>
<path d="M51.3802 16.1704C50.9738 16.8157 55.5268 16.7912 55.5268 16.7912" stroke="#D1FF00" stroke-width="0.86" stroke-miterlimit="10" stroke-linejoin="round"/>
<path d="M49.8809 19.8803C50.6334 19.4292 51.0844 18.6946 51.0844 18.6946" stroke="#D1FF00" stroke-width="0.86" stroke-miterlimit="10" stroke-linejoin="round"/>
<path d="M58.1984 40.11C57.6022 41.9969 56.345 44.5112 56.345 44.5112C56.345 44.5112 55.5222 41.8618 55.6829 36.0717C55.8817 28.9228 60.2505 21.7739 61.3089 18.3318C61.6495 17.2231 62.0815 14.2108 58.6707 11.5513C55.0655 8.74223 55.4541 3.74258 56.259 5.29115C57.0652 6.84084 57.4213 6.36857 59.5125 8.79247C62.8285 12.6343 62.3629 14.7724 62.3328 18.6768C62.3026 22.5811 60.1634 27.9414 60.1634 27.9414C60.1634 27.9414 58.9855 31.5666 58.2732 35.7501C57.5609 39.9336 59.8843 60.8801 59.8843 60.8801" stroke="#D1FF00" stroke-width="0.86" stroke-miterlimit="10" stroke-linejoin="round"/>
<path d="M57.334 42.4502C57.4144 45.3731 55.992 48.8778 55.992 48.8778C55.992 48.8778 55.331 44.2522 55.8915 42.0103" stroke="#D1FF00" stroke-width="0.86" stroke-miterlimit="10" stroke-linejoin="round"/>
<path d="M61.0475 19.0832C61.1179 16.4762 60.5898 15.842 58.9686 14.433C57.3475 13.024 56.9958 11.2275 56.9958 11.2275C56.9958 11.2275 56.1852 14.7155 57.3129 15.842" stroke="#D1FF00" stroke-width="0.86" stroke-miterlimit="10" stroke-linejoin="round"/>
<path d="M57.4193 27.8545C59.1811 19.5768 60.589 16.5779 59.075 16.0889C57.9831 15.7361 55.0947 15.7361 55.0947 15.7361" stroke="#D1FF00" stroke-width="0.86" stroke-miterlimit="10" stroke-linejoin="round"/>
<path d="M59.2414 16.1704C59.6478 16.8157 55.0947 16.7912 55.0947 16.7912" stroke="#D1FF00" stroke-width="0.86" stroke-miterlimit="10" stroke-linejoin="round"/>
<path d="M60.7417 19.8803C59.9891 19.4292 59.5381 18.6946 59.5381 18.6946" stroke="#D1FF00" stroke-width="0.86" stroke-miterlimit="10" stroke-linejoin="round"/>
</svg>
