<svg width="64" height="64" viewBox="0 0 64 64" fill="none" xmlns="http://www.w3.org/2000/svg">
<path d="M47.1923 54.613L45.8066 58.7957L46.3066 59.6519H55.3217" stroke="#C9FF00" stroke-linecap="round" stroke-linejoin="round"/>
<path d="M50.164 54.5925L47.5542 54.6822C47.2414 54.6925 47.0107 54.3964 47.0991 54.0964C47.7721 51.8199 50.0153 43.6046 49.3859 37.2582C48.6489 29.8185 47.9003 27.492 47.8734 25.9025C47.8426 24.0438 48.7091 23.0837 48.7091 23.0837C48.7091 23.0837 50.7216 24.6014 51.0933 26.769C51.4651 28.9366 51.5894 33.7678 51.6509 40.3026C51.7022 45.6658 51.1356 51.834 50.9305 53.8734C50.8908 54.272 50.5627 54.5771 50.1627 54.5912L50.164 54.5925Z" stroke="#C9FF00" stroke-linecap="round" stroke-linejoin="round"/>
<path d="M48.6508 23.9622C50.9014 25.7602 51.0972 28.0249 51.39 31.4045C51.6828 34.7841 51.2436 41.507 50.9491 42.2977C50.6546 43.0885 50.166 43.2324 50.2647 42.1176C50.3634 41.0027 49.8221 33.8344 48.8483 30.187C47.3808 24.6866 48.6508 23.9622 48.6508 23.9622Z" stroke="#C9FF00" stroke-width="0.6" stroke-linecap="round" stroke-linejoin="round"/>
<path d="M48.4829 52.6314L49.4552 52.578C49.756 52.562 49.9962 52.3165 50.0119 52.0091L50.3273 45.9402L49.3508 46.2102L48.1049 52.1788C48.0547 52.4201 48.2417 52.6453 48.4829 52.6314Z" stroke="#C9FF00" stroke-width="0.5" stroke-linecap="round" stroke-linejoin="round"/>
<path d="M49.2949 23.6105L48.8694 21.025C48.7783 20.4713 48.8694 19.9034 49.1257 19.4048L49.8833 17.9358L50.9523 19.392C51.3151 19.8867 51.5266 20.4764 51.5599 21.0891L51.7676 24.8603" stroke="#C9FF00" stroke-linecap="round" stroke-linejoin="round"/>
<path d="M51.1787 27.0254L51.2338 26.1807C51.2748 25.559 51.5504 24.9757 52.0068 24.5514L53.6514 23.0222" stroke="#C9FF00" stroke-linecap="round" stroke-linejoin="round"/>
<path d="M52.623 36.2852L53.4832 29.5812C53.5165 29.3338 53.8728 29.3287 53.9113 29.5761L54.7458 36.2429L53.8523 42.9417C53.8318 43.0943 53.6113 43.0956 53.5895 42.943L52.623 36.2852Z" fill="#C9FF00"/>
<path d="M51.9176 19.2035C51.6817 13.4019 51.0741 8.88217 49.8936 8.51172" stroke="#C9FF00" stroke-linecap="round" stroke-linejoin="round"/>
<path d="M60.1535 54.613L61.5392 58.7957L61.0392 59.6519H52.0254" stroke="#C9FF00" stroke-linecap="round" stroke-linejoin="round"/>
<path d="M57.1826 54.5925L59.7924 54.6822C60.1052 54.6925 60.3359 54.3964 60.2474 54.0964C59.5745 51.8199 57.3313 43.6046 57.9606 37.2582C58.6977 29.8185 59.4463 27.492 59.4732 25.9025C59.504 24.0438 58.6375 23.0837 58.6375 23.0837C58.6375 23.0837 56.625 24.6014 56.2532 26.769C55.8815 28.9366 55.7572 33.7678 55.6956 40.3026C55.6444 45.6658 56.2109 51.834 56.416 53.8734C56.4558 54.272 56.7839 54.5771 57.1839 54.5912L57.1826 54.5925Z" stroke="#C9FF00" stroke-linecap="round" stroke-linejoin="round"/>
<path d="M58.784 23.9622C56.5334 25.7602 56.3376 28.0249 56.0448 31.4045C55.752 34.7841 56.1912 41.507 56.4857 42.2977C56.7802 43.0885 57.2688 43.2324 57.1701 42.1176C57.0713 41.0027 57.6127 33.8344 58.5865 30.187C60.054 24.6866 58.784 23.9622 58.784 23.9622Z" stroke="#C9FF00" stroke-width="0.6" stroke-linecap="round" stroke-linejoin="round"/>
<path d="M58.8629 52.6314L57.8906 52.578C57.5898 52.562 57.3496 52.3165 57.334 52.0091L57.0186 45.9402L57.995 46.2102L59.241 52.1788C59.2911 52.4201 59.1042 52.6453 58.8629 52.6314Z" stroke="#C9FF00" stroke-width="0.5" stroke-linecap="round" stroke-linejoin="round"/>
<path d="M58.0537 23.6105L58.4793 21.025C58.5703 20.4713 58.4793 19.9034 58.2229 19.4048L57.4653 17.9358L56.3963 19.392C56.0335 19.8867 55.822 20.4764 55.7887 21.0891L55.5811 24.8603" stroke="#C9FF00" stroke-linecap="round" stroke-linejoin="round"/>
<path d="M56.167 27.0254L56.1119 26.1807C56.0709 25.559 55.7953 24.9757 55.3389 24.5514L53.6943 23.0222" stroke="#C9FF00" stroke-linecap="round" stroke-linejoin="round"/>
<path d="M55.8454 20.861C55.8723 19.3638 55.175 18.8331 53.5945 17.8884C51.8628 19.1549 51.6038 19.2587 51.5 20.861" stroke="#C9FF00" stroke-linecap="round" stroke-linejoin="round"/>
<path d="M57.9002 18.5909C57.9002 18.5909 57.8579 15.0312 59.1436 11.7728C60.4293 8.51438 63.3454 9.45781 63.3454 9.45781C63.3454 9.45781 61.8444 7.3133 59.9152 8.98609C59.4858 8.47208 58.8 8.68614 58.4578 9.11428C56.3992 7.14154 55.0699 9.75776 55.0699 9.75776C55.0699 9.75776 54.5149 8.94251 53.6176 8.94251C52.719 8.94251 52.2768 9.75776 52.2768 9.75776C52.2768 9.75776 50.9475 7.14154 48.8889 9.11428C48.5454 8.68486 47.8596 8.4708 47.4315 8.98609C45.501 7.3133 44 9.45781 44 9.45781C44 9.45781 46.9162 8.51438 48.2018 11.7728C49.4875 15.0312 49.4452 18.5909 49.4452 18.5909" stroke="#C9FF00" stroke-linecap="round" stroke-linejoin="round"/>
<path d="M55.4277 19.2035C55.6636 13.4019 56.2712 8.88217 57.4517 8.51172" stroke="#C9FF00" stroke-linecap="round" stroke-linejoin="round"/>
<path d="M50.9316 53.8745C51.2329 54.7731 51.9763 54.6308 52.9762 54.6308H55.0617C55.8616 54.6308 56.291 54.5449 56.4051 54.0873" stroke="#C9FF00" stroke-linecap="round" stroke-linejoin="round"/>
<path d="M52.6321 53.6015H54.7625C55.1304 53.6015 55.4124 53.2734 55.356 52.9106L54.6343 45.9438H52.6616L52.0348 52.9478C52.0027 53.299 52.2796 53.6015 52.6334 53.6015H52.6321Z" stroke="#C9FF00" stroke-width="0.5" stroke-linecap="round" stroke-linejoin="round"/>
</svg>
